<?xml version="1.0" encoding="UTF-8"?>
<!DOCTYPE svg PUBLIC "-//W3C//DTD SVG 1.1//EN" "http://www.w3.org/Graphics/SVG/1.1/DTD/svg11.dtd">
<!-- Creator: CorelDRAW 2021 (64-Bit) -->
<svg xmlns="http://www.w3.org/2000/svg" xml:space="preserve" width="6.29921in" height="1.5748in" version="1.1" style="shape-rendering:geometricPrecision; text-rendering:geometricPrecision; image-rendering:optimizeQuality; fill-rule:evenodd; clip-rule:evenodd"
viewBox="0 0 6299.21 1574.8"
 xmlns:xlink="http://www.w3.org/1999/xlink"
 xmlns:xodm="http://www.corel.com/coreldraw/odm/2003">
 <defs>
  <style type="text/css">
   <![CDATA[
    .fil0 {fill:black}
    .fil1 {fill:#7D5F54}
    .fil2 {fill:#878587;fill-rule:nonzero}
   ]]>
  </style>
 </defs>
 <g id="Layer_x0020_1">
  <metadata id="CorelCorpID_0Corel-Layer"/>
  <g id="_1820289595312">
   <path class="fil0" d="M3356.28 1480l65.49 0 0 -1377.83 -65.49 0 0 655.09 -865.09 0 0 -655.09 -67.66 0 0 1377.83 67.66 0 0 -655.09 865.09 0 0 655.09zm1373.49 0l0 -65.49 -791.74 0 0 -1312.34 -65.49 0 0 1377.83 857.23 0zm1446.83 -4.33l0 -1373.49 -65.5 0 0 1133.59 0.26 44.05 -46.44 -55.07 -929.93 -1111.8 0 1367.05 65.49 0 0 -1129.25 -0.31 -43.78 28.67 33.48 947.77 1135.21z"/>
   <path class="fil1" d="M130.97 1232.33c60.41,-63.98 143.72,-152.85 157.85,-182.48 21.09,-44.16 100.64,-126.26 148.61,-140.61 47.93,-14.34 76.31,-68.86 85.06,-87.04 8.8,-18.18 68.89,-131.04 68.89,-131.04l0 85.13c0,0 25.02,9.56 25.7,43.04 0.66,33.48 -7.44,44.96 0,66.95 7.42,22.02 0.02,52.61 0.02,52.61l33.74 -68.86c0,0 23.64,94.7 33.79,90.88 10.11,-3.84 46.59,95.65 49.96,105.2 3.37,9.57 0,-157.81 0,-157.81l-79.7 -120.54 301.23 -466.75 31.65 40.79 116.8 -83.12 9.52 317.17 39.84 -107.13 11.47 120.04 24.33 -24.38 52.08 192.72 13.87 -117.5 61.44 7.64 44.24 -39.21 39.17 150.15 33.11 -46.36 25.17 117.41 15.87 -53.33 21.78 75.09 30.4 13.86 27.7 99.47 11.48 -112.85 319.97 367.04 -0.59 0.1c-0.33,12.64 9.51,11.99 12.27,18.11 -7.42,2.95 -9.06,-3.33 -8.02,8.46 -11.77,0.06 -6.52,0.18 -14.8,2.96 -4.21,1.4 -3.54,0.27 -7.57,0.08 -3.13,-0.16 -4.08,0.79 -6.68,1.44 -6.39,-8.85 -9.54,-1.98 -18.37,-1.67 -1.44,-3.11 -4.59,-5.07 -6.63,-7.59 4.41,-1.64 5.96,-0.07 9.93,-2.89 1.38,2.59 1.75,2.88 4.01,4.72 4.76,-2.86 7.48,-2.49 13.41,-5.09 -1.99,-6.46 -11.05,-9.06 -16.35,-12.99l3.1 -4.7 -4.46 -3.58c2.31,-1.51 4.59,-2.15 7,-3.95 0.3,-3.42 -0.93,-16.28 -2.7,-18.81 -3.26,1.3 -3,1.98 -6.34,2.59 -5.3,1 -4.98,8.11 -12.51,13.49 -2.17,-2.37 -4.08,-13.26 0.06,-14.45 7.61,-2.23 11.83,1.8 5.38,-7.19l3.05 -1.29c4.79,-1.76 -0.74,0.59 2.19,-0.63l-1.89 -7.35c-4.51,0.19 -6.47,1.94 -9.41,4.4l-1.27 1.01c-0.13,-0.16 -0.46,0.37 -0.7,0.5 0.39,-8.4 3.45,-7.79 5.49,-14.58l-1.57 -0.45c-7,-2.13 -1.69,-2.3 -6.34,-7.82 -1.09,2.73 -1.16,6.65 -1.46,10.3 -4.56,0.14 -1.86,-0.23 -5.77,-0.69l1.9 7.55 -9.51 1c0.11,6.13 3.96,3.68 2.23,12.69l3.84 2.68c-1.65,1.17 -1.9,1.03 -3.89,2.15 0.7,12.41 -4.42,3.98 -11.95,2.78 0.95,8.27 -0.15,8.29 4.35,13.33l-2.74 4.66c0.26,0.18 0.61,0.32 0.8,0.43l20.22 9.15c-11.5,4.42 -10.87,-0.8 -17.52,-1.04 -7.42,-0.26 -0.32,4.39 -12.96,-3.47 -1.86,1.08 -6.89,4.34 -9.2,6.13 5.81,3 8.99,7.17 15.4,10.33 13.67,6.7 9.47,0.06 20.75,1.35 -1.2,2.22 -3.69,4.29 -5.96,5.38 -4.18,2.06 -4.59,0.53 -8.98,-0.13 -6.47,-0.95 -15.16,1.17 -19.09,3.96 1.19,7.5 8.2,6.78 11.35,12.53l-7.55 0.58 -0.75 5.86c-8.69,-1.01 -11.31,4.08 -17.11,-0.11 2.04,-4.39 4.96,1.03 3.44,-9.06l-10.11 -0.08 3.39 -8.8 -7.95 -6.67 -2.81 5.59c-3.31,-0.27 -2.82,-0.5 -4.86,-2.41 0.45,-2.73 2.07,-2.17 2.46,-4.93 0.16,-1.44 -0.68,-3.66 -0.48,-6.58l-11.59 1.12c2.04,-4.69 3.6,-3.34 4.43,-8.77 -2.8,-1.36 -2.44,-0.59 -6.02,-0.94 -1.78,-3.71 0.16,-3.97 -4.29,-5.52l-1.14 7.21 -5.61 1.14c0.82,5.97 5.54,7.32 -7.03,7.26 1.83,7.18 1.97,11.45 2.34,19.45 -6.82,-0.35 -5.86,-2.52 -12.75,-3.39 0.95,6.33 -0.02,8.4 4.46,11.37l-2.09 4.98c2.65,1.72 4.91,1.72 8.29,3.47 3.24,1.7 5.3,2.82 7.16,4.96 -6.3,-0.72 -12.67,-2.04 -19.06,-3.28 -8.56,-1.65 -8.75,1.14 -17.15,2.84 3.42,1.88 19.08,10.82 20.62,12.75 -5.93,3.3 -13.36,2.48 -16.8,4.74 0.51,5.62 3.28,5.38 6.5,8.5 -1.14,3.43 -2.44,2.13 -2.99,6.02l-11.69 1.4c-0.08,-4.11 3.65,-12.49 -11.87,-12.37 -0.99,-3.48 -1.19,-3.79 -3.26,-5.78 -6.07,1.8 -17.85,9.6 -22.08,-4.98 6.87,-0.06 17.15,-2.23 23.25,-3.79 1.69,-3.05 2.14,-7.02 3.98,-10.58 1.76,-3.48 3.9,-5.31 5.09,-8.61 -1.43,-2.07 -7.16,-6.1 -9.25,-7.29 -3.52,1.14 -3.95,2.15 -8.19,2.42l-1.64 -6.23c-4.63,3.31 -9.99,3.79 -15.16,0.55 -2.98,-1.87 -7.7,-7.92 -9.59,-8.69 10.54,-1.07 11.68,-0.18 19.5,2.09 1.48,-1.91 2.84,-4.43 4.16,-6.34l14.95 -17.1c-0.56,-0.56 -0.37,-0.53 -1.67,-1.32l-6.43 -1.65c-8.25,-0.69 -2.44,-0.4 -8.06,-2.73l-5.96 5.33c-7.09,-1.07 -12.72,-4.88 -15.13,-11.05 7,0.39 5.99,1.44 10.79,2.58l2.47 -6.18 4.87 2.99 14.74 -16.14c-5.86,-5.8 -8.35,-4.54 -15.83,-3.15 -1.85,-3.23 -3.45,-4.7 -6.95,-6.49 -4.4,1.43 -4.4,3.44 -9.03,4.93 -3.19,-1.88 -7.32,-7.58 -8.35,-11.58l0.02 -1.03c1.96,-0.67 3.28,0.5 5.31,1.2 1.56,-1.57 1.75,-2.47 4.24,-3.34l3.21 4.7c2.26,-0.64 3.69,-1.85 7.19,-2.8 17.54,-4.66 -2.68,-11.06 -4.51,-19.44l-5.31 -1.88c1.11,-5.35 2.26,-2.5 3.58,-7.56 -2.38,-2.81 -3.52,-1.69 -5.37,-4.72 1.43,-2.65 5.07,-3.53 8.05,-5.39 0.64,-10.01 -3.89,-2.76 -0.71,-14.21 1.8,-6.3 0.15,-1.26 -1.31,-6.07 -1.04,-3.31 -0.19,-4.45 -0.43,-7.85 -3.21,2.93 -4.7,2.52 -9.43,4.26 -3.61,8.16 -3.61,14.9 -10.47,19.78 -1.67,-7.02 -2.43,-14.82 -1.48,-22.61 4.9,0.24 5.56,2.86 9.8,-0.83 1.89,-3.92 -2.25,-4.69 -3,-9.41 3.32,0.03 3.87,0.66 6.44,-1.07 -0.07,-3.63 -1.8,-3.12 -2.23,-5.85 -0.34,-2.26 1.07,-3.76 1.65,-6.28 -1.85,0.24 -7.55,2.15 -8.61,2.96 -2.63,2.12 -1.14,4.04 -4.37,7.21 -1.4,-1.77 -1.16,-4.24 -0.69,-6.1 1.67,-6.83 5.36,-10.6 5.67,-17.63 -5.43,0.95 -1.11,1.38 -5.53,1.75 -0.98,-4.5 0.04,-7.69 -2.31,-10.74 -2.04,3.72 -1.48,7.96 -2.28,12.96 -1.61,1.14 -0.69,0.3 -2.63,0.61 -0.26,0.03 -1.19,0.11 -1.4,0.15l-1.41 0.21c1.89,9.78 5.15,10.28 3.93,22.13l-2.94 -10.26c-4.42,-0.16 -5.36,2.59 -8,-2.07 -1.4,9.92 5.01,7.31 1.51,19.48 2.71,2.59 2.17,1.09 4.03,3.76 -2.19,5.46 0.7,-1.13 -2.7,2.47 -0.77,0.83 -1.48,-2.31 -1.17,2.96 0.13,2.31 2.57,4.38 -0.11,6.87 -3.47,3.21 -5.36,-4.06 -12.51,-5.12 0.77,7.89 5.03,5.89 -0.19,11.5 3.07,3.11 4.61,4.03 6.33,9.65 -2.76,3.07 -3.26,1.77 -4.24,7.07 3.89,0.87 9.33,1.99 11.71,5.07 3.65,4.67 4.53,3.95 9.52,5.15l1.57 0.64c-0.67,2.83 -0.35,2.93 -3.37,3.73 -1.8,0.5 -4.85,0.37 -6.7,-0.02 -2.87,-0.63 -6.3,-2.75 -8.08,-4.66 -8.37,1.61 6.3,-2.22 -2.23,1.01 -4.82,1.85 -6.78,-1.19 -10.65,-4.69 -2.25,1.31 -9.46,6.48 -10.21,8.61 2.92,4.24 3.45,2.76 8.49,4.56l-0.26 6.15 5.04 -1.85c1.65,8.58 2.31,6.41 8.44,5.33l-0.4 4.99c8.06,0.35 9.28,-3.56 16.98,-4.74 -1.65,3.53 -3.81,5.85 -6.07,8.2 -2.47,2.65 -4.51,4.19 -8.74,2.23 -6.73,-3.11 -3.21,-1.49 -10.47,0.52 -3.5,0.94 -7.15,1.43 -10.47,2.31 -0.02,13.02 10.13,13.01 12.17,19.29 -3.78,1.98 -6.37,-0.03 -8.05,2.47 -0.75,1.14 0.39,4.98 0.07,7.93 -4.53,-0.03 -2.15,-0.45 -6.23,-1.96 -2.71,4.45 -4.27,1.8 -8.38,3.81 8.2,13.65 18.1,13.91 22.5,22.92 1.76,3.65 4.33,6.05 5.28,9.15 -6.58,2.74 -8.88,5.23 -17.07,1.72l-7.18 3.9c-2.18,0.87 -0.85,0.21 -2.13,1.04 1.52,7.08 5.28,11.71 10.34,15.98 3.13,2.65 3.08,1.35 4.27,5.01 -7.02,2.25 -11.15,-1.13 -16.35,1.7 -3.89,3.76 10.2,15.56 13.06,17.65 4.66,-0.56 2.12,-0.8 6.06,-2.84 5.77,9.2 -4.41,13.39 -13.1,15.37 -8.29,1.86 -9.62,10.58 -19.46,9.8 -0.26,-3.05 0.39,-2.09 1.41,-5.35 -3.53,-0.72 -2.55,0.18 -3.96,-2.47 5.38,-2.01 7.02,-1.17 6.36,-6.87 -0.52,-4.26 -0.69,-8.3 -1.32,-12.27 -5.25,1.69 -3.95,2.12 -10.44,1.48 -0.77,5.54 -3.79,9.8 -8.75,11.96 -2.84,-3.53 -3.5,-6.55 -2.94,-12.13l11.72 -0.17 -2.55 -4.77c4.78,-4.27 3.77,-0.67 2.68,-8.44 -7.13,0.29 -8.88,1.85 -11.55,6.28 -0.91,-6.54 3.36,-8.67 4.59,-13.87 -0.21,-0.09 -0.52,-0.11 -0.61,-0.13l-4.55 -0.82c-1.56,-4.16 0.85,-3.05 -3.23,-4.82l-0.77 6.92c-1.65,0.74 -1.43,0.35 -2.7,0.82 -2.21,0.74 -0.56,-0.16 -2.31,0.93l1.89 5.56 -9.92 0.3c1.67,8.4 2.57,9.91 1.97,19.59 -6.24,0.37 -3.85,-0.69 -7.59,-2.14 -4.24,-1.62 -3.84,0.15 -8.91,-1.09 -4.17,-1.06 -7.96,-4.85 -12.37,-6.54 0.5,-7.39 2.88,-2.59 -2.94,-7.26 2.54,-1.56 4.72,-1.69 7.56,-3.71l-2.36 -14.66c-15.31,-0.8 -9.72,11.8 -20.48,11.66 -4.16,-12.72 4.27,-8.11 7.92,-12.57 2.84,-3.82 -1,-0.06 0.61,-3.92l2.86 -3.24 -1.53 -4.5c-3.45,-0.1 -4.32,-0.29 -7.08,1.41 -3.26,2.04 -0.92,2.13 -4.55,3.02 0.1,-4.9 2.94,-7.37 5.17,-11.26l-2.36 -1.88c-2.81,-2.41 -2.06,-3.95 -5.17,-5.62 -4.11,-2.25 -8.58,0.18 -11.71,-0.45 -3.11,-0.63 -3.84,-4.62 -9.14,-4.17 -4.93,0.42 -2.76,3.18 -10.97,2.26 -3.77,-4.63 2.72,-3.37 -7.22,-6.94 1.51,-2.86 0.64,-1.69 3.13,-3.74l3.82 2.52 4.03 -2.93c1.65,1.37 2.98,2.76 4.46,4.46 4.33,-3.23 8.06,-2.39 13.6,-6.04 -1.99,-7.07 -10.86,-9.89 -16.2,-15.24 0.76,-4.09 1.27,-2.22 2.78,-5.69 -2.23,-2.57 -3,-1.4 -4.64,-4.7 2.43,-1.67 5.06,-2.94 7.34,-4.5l-2.6 -23.46 -6.74 3.36c-6.04,2.25 -5.2,13.33 -13.25,17.42 -0.85,-7.67 -2.19,-11.24 -0.77,-19.32 5.69,0.4 5.48,1.03 10.15,-0.59 -0.59,-5.57 -2.2,-4.29 -3.85,-8.05l6.7 -0.91c-1.46,-5.2 -2.04,-5.75 0.22,-10.19 -13.5,1.81 -7.61,2.41 -13.3,8.53 -2.04,-2.41 -0.77,-6.15 0.56,-9.01 6.35,-13.38 4.37,-8.35 -0.24,-10.2 -3.53,-1.44 0.95,2.89 -1.41,-1.22 -1.06,-1.85 -0.29,-4.13 -1.89,-5.86 -2.36,3.29 -1.41,5.86 -2.06,10.37l-5.4 -0.19c0.66,5.57 6.36,12.01 3.42,16.86 -2.19,-2.91 -0.87,-5.69 -3.37,-6.89 -1.99,-0.93 -3.9,0.82 -7.95,-0.79 1.03,9.65 4.82,4.96 1.99,16.57 3.73,1.12 2.41,0.05 4.16,2.57 -1.62,1.96 -2.31,1.51 -4.03,2.83 2.52,16.14 -3.9,4.35 -12.22,3.41 0.85,4.53 1.36,8.72 3.26,12.78 3.32,7.13 0.19,3.71 -1.8,9.31 1.61,1.43 -0.16,0.58 3.08,1.73l6.22 1.72c3.89,1.86 1.46,3.45 6.44,5.19l6.31 1.69c-10.45,6.15 -9.07,3.23 -18.15,-1.64 -2.55,1.98 -2.41,3.92 -6.82,1.61 -2.67,-1.41 -2.49,-2.31 -6.26,-3.89l-2.09 1.98c-2.78,2.1 -5.49,1.77 -7.17,4.82 2.7,3.95 2.76,1.54 6.25,3.72 5.83,3.69 1.8,5.39 11,8.8 4.66,1.7 1.7,0.29 5.09,3.78 5.98,-0.05 8.46,-2.52 14.05,-3.36 -1.07,4.53 -2.09,4.91 -5.73,7.2 -5.52,3.47 -3.11,2.41 -8.17,0.38 -3.65,-1.41 -15.98,1.72 -19.93,3.39 -0.32,5.41 1.24,7.04 4.38,9.44 2.31,1.74 5.72,3.92 7.29,6.65l-7.96 3.48c-0.02,0.29 -0.05,0.56 -0.06,0.89l0.3 3.98c-7.02,-1.38 -7.8,0.37 -14.31,1.67 2.56,5.11 7.93,10.02 13.86,12.43 5.99,2.46 4.27,1.78 7.32,6.34 1.88,2.84 3.55,4.78 5.22,8.03 -5.38,3 -6.19,4.03 -13.67,2.59 -6.75,-1.32 -0.53,-1.19 -5.56,0.9 -2.57,1.08 -3.68,0.74 -6.23,1.81 0.45,9.88 11.24,13.07 14.02,17.73 -3.6,1.11 -5.7,0.8 -10.04,0.92 -7.16,0.18 -8.53,4.32 -15.33,4.54 -2.31,0.06 -4.72,-1.16 -5.19,-3.08 -0.06,-0.3 -0.32,-0.37 -0.53,-0.52 -9.97,3.13 -18.81,-0.88 -23.46,-7.26 8.48,0.13 11.89,-0.59 19.46,2.04 3.2,-3.26 5.61,-6.33 9.15,-9.51l7.31 -6.37c1.41,-1.41 0.9,-0.77 1.64,-2.25 -3.87,-2.39 -6.86,-1.16 -11.46,-2.59 -6.97,-2.13 -3.12,-1.11 -8.75,1.59 -6.31,2.99 -14.57,-4.06 -16.64,-7.26 16.33,1.13 8.29,0.19 14.18,-1.61 2.98,-0.9 3.1,0.07 5.39,-1.57 2.68,-1.96 1.65,0.94 4.48,-0.58 2.25,-1.17 4.67,-4.98 6.84,-6.81l2.23 -1.96c-6.38,-5.69 -7.53,-2.96 -15.46,-2.99 -8.99,-11.55 -20.12,7.74 -19.61,-7.59l-6.13 -0.87 1.86 -2.46c2.23,0.47 3.24,1.48 4.61,2.68l3.24 -4.01c2.86,1.25 2.57,1.54 4.72,3.84 2.26,-0.85 4.03,-1.75 6.71,-2.35 3.69,-0.79 4.29,-0.9 6.83,-2.04 -0.22,-7.26 -9.81,-8.87 -15.05,-12.49 -0.8,-6.17 1.01,-2.33 1.56,-7.6 -2.87,-2.23 -2.47,-0.59 -3.8,-3.77 4.4,-2.6 5.3,-1.98 8.01,-6.6 -1.43,-3.32 -1.56,-1.25 -3.16,-4.74 1.12,-1.93 1.76,-2.76 2.65,-4.7 -1.66,-2.38 -4.19,-5.03 -1.81,-8.98 -5.17,1.14 -3.82,2.76 -10.81,1.85 -0.82,6.97 -4.46,13.49 -9.94,15.9 -1.75,-6.84 -2.33,-8.27 -1.7,-16.56l12.03 0.42 -3.31 -6.8c2.17,-2.31 1.28,-0.91 4.22,-2.81l-1.04 -8.43c-11.16,1.13 -6.5,1.59 -11.8,7.19 -1.94,-8.4 3.29,-9.49 5.15,-16.72 -3.37,-1.83 -4.46,1.75 -6,-2.2 -1.54,-4.08 1.56,-3.48 -2.99,-6.34l-1.86 11.29 -4.22 -1.33c-0.29,6.6 6.5,11.28 3.08,16.37l-2.65 -6.83 -8.91 0.34c1.33,4.03 2.19,9.14 3.79,13.41 1.38,3.76 1.77,1.76 0.42,6.55 -0.64,2.3 -1.49,4.09 -2.09,6.44 -6.13,-0.83 -4.87,-3.58 -11.66,-4.8 0.89,7.87 1.29,9.99 4.66,15.24 -1.4,4.14 -2.67,2.01 -2.86,6.31 4.61,2.44 7.31,0.26 11.26,3.53 6.63,5.48 1.65,1.7 9.7,4.15 -1.75,7.74 -11.45,2.41 -15.2,0.96 -7.72,-3 -1.46,1.44 -8.74,-0.02 -2.12,-0.46 -4.76,-2.81 -6.43,-3.68l-10 5.75c3.52,3.3 12.89,9.22 17.52,11.87 10.45,5.99 10.82,0.67 21.5,-0.35 -3.44,4.13 -8.11,10.91 -16.22,7.59 -5.44,-2.25 -4.35,-0.06 -10.68,0.98 -4.06,0.67 -6.17,0.35 -9.62,2.57 0.92,7.58 7.79,8.06 11.63,13.22 -3.35,2.02 -2.74,0.53 -6.54,1.49 -1.85,3.31 -0.77,2.46 -0.94,6.65 -7.6,-1.7 -7.17,0.24 -13.35,1.61 1.35,3.18 0.24,1.04 1.85,3.24l4.56 4.22c6.49,5.09 16.37,7.31 18.97,16.77 -8.11,5.65 -16.3,0.8 -24.63,4.7 -0.68,5.43 4.64,6.61 -0.26,8.4 -3.96,1.43 -6.39,-1.22 -12.07,1 -4.83,1.88 -13.33,0.69 -15.14,-6.01 12.25,1.22 23.01,-2.67 31.5,-10.95 -8.11,-2.8 -2.91,-2.88 -13.52,-2.51 -3.13,0.11 -7.5,-3.19 -9.86,-4.8 -3.55,2.44 -3.21,3.66 -9.91,3.66 -2.68,-2.56 -5.4,-4.39 -7.15,-6.73 6.12,-2.23 10.55,-1.87 15.16,1.75l2.02 -1.76c2.33,-1.33 6.52,-1.56 9.15,-2.52 -0.26,-4.67 0.9,-1.96 -2.49,-4.67 -3.78,-3.11 -8.78,-5.04 -12.67,-7.9 1.04,-3.45 1.09,-0.98 2.18,-4.94l-4.27 -2.59c2.04,-1.59 6.12,-3.47 8.06,-4.7 -0.64,-3.34 -1.57,-3.8 -1.77,-7.58 -0.24,-4.05 0.61,-5.15 -0.85,-8.77 -0.56,-0.15 -0.56,-0.21 -1.99,-0.06l-4.56 1.12c-3.95,1.27 -2.68,0.05 -4.83,4 -2.41,4.53 -3,6.94 -8.03,8.32 -0.42,-0.32 -0.89,-0.59 -1.4,-0.82 -0.93,-3.65 -1.16,-7.81 -0.64,-12.11 8.06,-0.02 11.46,1.25 8.41,-5.83 4.8,-3.9 3.52,-3.05 3.04,-9.47 -6.39,0.96 -7.92,1.49 -11.46,5.03 -0.15,-8.08 3.55,-6.97 4.19,-13.49 -4.11,-1.54 -2.73,1.54 -4.11,-0.66l0.29 -0.59 -1.14 -0.77 -0.02 -0.03c-1.91,-3.16 1.07,-3.05 -3.6,-4.37l-0.16 1.93c-1.57,-1.14 -2.91,-2.38 -3.95,-4.13l-8.24 2.33 -3 -5.75c-7.52,1.83 -6.57,5.43 -15.59,-0.69 -3.69,-2.51 -8.03,-6.33 -10.17,-9.57 9.38,0.22 13.23,0.32 20.7,3.24 2.6,-2.49 6.33,-9.33 9.2,-12.88 3.63,-4.48 8,-8.03 10.5,-12.88 -4.34,-0.66 -4.76,-1.8 -9.4,-1.86 -8.06,-0.06 -1.25,-1.07 -7.27,-2.17 -4.66,3.6 -6.35,6.6 -13.43,2.01 -4.61,-2.97 -6.39,-5.27 -8.77,-11.05l11.13 4.26 3 -4.85c4.74,0.35 1.59,0.51 6.06,2.19 0.11,-0.23 0.19,-0.59 0.27,-0.8 2.7,-6.07 1.38,-0.5 7.07,-7.76 2.71,-3.48 5.75,-4.94 6.79,-9.1 -3.58,-2.19 -4.66,-2.09 -8.09,-4.98l-7.06 2.31c-3.1,-3.41 -3.55,-5.61 -9.03,-6.76 -2.37,1.38 -7.46,7.98 -10.52,3.61 -2.8,-3.98 1.35,-3.44 -2.11,-6.6 -0.87,-0.79 -3.24,-1.01 -5.15,-2.35 2.54,-5.59 4.66,-1.7 6.7,-1.07 2.76,-2.47 1.41,-2.97 4.35,-4.56l3.29 5.93c4.96,-1.14 -0.05,0.32 3.87,-1.8 5.93,-3.18 8.35,-1.81 9.96,-4.76 4.29,-7.77 -9.52,-6.42 -10.76,-18.15l-5.37 0.71c-0.03,-7.04 2.56,-4.43 3.71,-9.35 -2.34,-2.65 -3.56,-2.35 -5.41,-4.95l-6.44 -5.67c-3.08,-2.8 -2.71,-4.4 -6.65,-5.38 -1.49,1.03 -0.46,0.27 -2.6,1.22l0.29 -24.52c4.32,0.88 4.22,1.51 9.25,0.11 2.18,-5.86 -1.41,-6.13 -3.55,-10.84l8.09 -0.98c-1.65,-5.88 -5.97,-6.17 -0.82,-12.22 -4.21,0.16 -2.17,0.09 -5.11,1.07l-3.6 1.35c-0.13,-0.19 -0.51,0.18 -1.04,0.18l-3.52 7.47c-1.11,-1.26 -0.31,0.61 -0.89,-1.9l0.16 -5.01c1.16,-5.88 5.22,-10.87 6.01,-18.72 -4.61,1.19 -2.25,1.85 -5.8,1.81l-2.46 -11.85 -1.46 16.88c-4.53,-0.24 -1.11,-0.91 -6.15,-2.7 0.21,7.35 4.16,12.77 4.67,17.17 0.19,1.94 0.21,1.59 -0.19,3.45 -0.43,1.93 -0.28,1.17 -1.2,2.2l-1.85 -8.8c-5.96,0.03 -4.24,0.48 -9.36,-1.35 0.59,5.07 1.57,6.52 2.7,10.74 1.33,5.07 -0.06,5.4 -0.32,9.96 2.89,1.24 2.84,0.53 4.45,3.52 -1.61,2.99 -2.12,0.77 -5.09,2.83 0.35,2.7 1.2,3.34 1.5,5.06 1.86,11.16 -10.68,-0.45 -12.48,-0.98 -1.03,4.93 0.31,3.65 0.58,7.37 0.27,4.09 -0.63,2.78 -1.28,6.65 11,5.76 2.07,10.54 1.43,14.95 4.57,3 5.39,2.41 10.95,3.55 0.26,0.18 1.86,6.34 7.29,7.24 1.75,0.3 1.61,0.02 3.55,-0.58 6.2,-1.37 9.04,0.27 11.27,-4.56 -2.46,-5.96 -3.9,-0.46 -5.01,-8.48 5.62,0.24 2.5,-0.18 4.32,1.27 4.14,3.24 0.08,-0.56 0.72,2.41 1.29,5.81 5.43,3.71 -3.66,11.82 -20.14,18.02 -16.75,20.81 -28.49,8.98 -4.27,-4.32 -4.38,-2.8 -5.67,-10.24 -0.92,-2.7 -0.68,-1.78 -3.44,-3.91 -0.87,0.37 -9,6.62 -9.93,7.61 1.03,5.04 3.05,4.74 8.17,5.57l-0.46 6.86c5.72,-0.66 5.3,-2.41 7.4,5.81l4.87 -2.13 1.69 4.06c0.05,-0.13 0.16,0.48 0.32,0.72 6.81,0.1 12.62,-3.71 17.57,-6.2 -0.67,2.97 -9.78,14.28 -14.28,13.56 -6,-1 -1.16,-4.05 -10.2,-0.82 -4.18,1.51 -8.06,0.72 -12.19,2.68 -4.42,7.63 9.02,16.51 11.79,21.63l-8.94 0.34 -0.11 9.89c-3.73,-0.66 -1.35,-0.8 -4.76,-2.13 -3.65,2.89 -4.45,4.5 -8.72,0.27l-7.05 -5.38c1.49,-4.13 1.88,-1.2 3.07,-5.99 -3.02,-1.22 -3.33,-1.04 -4.91,-3.44 4.48,-2.61 3.58,-0.42 7.46,-4.72l-1.89 -20.83c-4.35,1.51 -3.13,2.68 -9.72,3.18 -2.04,6.9 -4.91,12.76 -10.37,15.08 -1.98,-4.34 -2.01,-10.98 -1.85,-16.33 5.51,-0.19 5.69,0.72 10.55,-1.2 -0.22,-3.92 -1.22,-3.29 -2.78,-6.34 3.42,-1.88 5.35,-0.61 5.35,-3.44 0,-2.71 -2.62,-1.27 -0.39,-6.85 -11.53,-0.55 -7.81,4.08 -12.91,7.26 -2.63,-5.12 4.09,-11.39 5.03,-16.78l-5.11 -0.79 -2.02 -7.55c-2.7,2.76 -1.61,5.72 -2.31,10.23 -3.39,2.12 0.05,0.08 -2.31,0.5 -0.24,0.05 -1.19,0.17 -1.37,0.19l0.29 8.27 -9.84 -0.06c0.22,6.23 4.99,7.83 1.65,14.15l3.98 2.17 -3.04 2.15c0.1,16.99 -3.82,4.67 -12.78,3.98 0.85,4.13 0.48,7.42 2.63,11.22 1.67,3.02 2.63,1.78 1.7,5.16 -0.83,3.04 -1.04,0.02 -2.59,4.19 4.54,2.52 16.37,7.13 20.51,10.7 -12.83,3.82 -10.94,-1.7 -16.64,-1.65 -3.79,0.03 -2.07,3 -7.37,-0.03 -2.04,-1.16 -3.95,-2.86 -5.56,-3.98 -1.67,1.51 -7.84,4.75 -8.9,7.26 4.91,6.54 7.52,-1.27 7.37,8.04 11.56,-1.14 5.94,4.34 14.74,6.06 5.38,1.04 10.44,-2.73 16.07,-3.85 -10.01,16.57 -17.39,3.76 -36.15,11.43 0,8.75 8.4,9.73 11.56,13.91 -2.99,1.24 -5.85,0.43 -7.58,2.23 -1.62,1.65 -0.06,2.79 -0.53,6.23 -8.35,-0.08 1.37,-3.44 -12.19,1.62l-1.27 0.56c5.67,5.86 6.97,7.85 14.31,10.87 4.48,1.83 9.76,8.33 11.39,12.5 -8.83,3.9 -13.25,2.3 -23.96,3.26l-2.02 -4.21c-7.24,3.13 -7.64,0.64 -10.81,7.11 -2.15,4.43 -3.47,6.54 -8.46,8.3 -1.08,-2.89 -2.36,-7.02 -2.06,-10.39 0.65,-6.25 6.65,-1.62 10.17,-5 2.7,-2.6 -0.32,-2.5 -2.02,-5.8l5.14 -1.54 -2.01 -7.02c-8.24,0.98 -6.83,2.49 -10.81,6.76 -1.29,-8.81 4.27,-8.66 4.85,-16.56l-5.61 0.46 -1.48 -6.06c-3.2,2.52 -1.65,4.06 -3.2,8.24l-3.95 0.94c0.51,6.1 3.37,5.41 3.5,12.57l-3.31 -5.15 -9.97 0.3c2.71,4.37 3.66,11.34 6.94,14.12 -4.27,3.1 -1.38,3.42 -4.08,8.38 -6.65,0.59 -3.81,-2.14 -11.37,-3.28 0.33,6.54 1.41,9.15 4.29,12.7 -1.11,3.89 -1.78,1.8 -2.6,5.65 6.31,2.34 13.62,4.63 19.08,8.75 -7.71,1.72 -13.54,0.18 -20.94,-1.7 -9.39,-2.43 -8.91,-2.09 -16.51,2.41 2.74,2.48 11.37,9.24 14.93,10.34 4.63,1.44 5.57,3.31 10.06,3.21 3.34,-0.06 5.39,-2.01 10.56,-2.5 -1.19,3.44 -2.87,4.74 -6.36,6.2 -6.18,2.54 -5.27,-0.24 -9.54,-0.93 -1.81,-0.29 -16.51,2.84 -18.56,3.59 2.49,8.17 7.61,6.74 11.52,12.61l-6.89 0.85 0.06 6.17c-5.64,-1.48 -8.44,-0.89 -12.85,1.99 3.74,8.43 21.76,9.46 23.81,20.52 -6.74,3.71 -8.77,1.7 -16.8,2.33 -10.62,0.8 -6.87,3.42 -6.26,7.52 -5.8,2.94 -7.71,4.83 -12.8,-0.15 1.62,-5.33 0.09,-0.03 2.57,-2.97 2.56,-3.02 4.11,-8.41 4.21,-12.25 -6.2,0.02 -13.94,1.69 -20.01,-0.83 -3.94,-1.62 -1.94,-0.27 -2.73,-2.76 4.03,-2.49 5.06,-0.42 10.86,-1.33l-0.31 -9.06c6.71,-1.46 13.65,-7.74 14.61,-14.22 -3.23,-4.83 -4.61,-6.25 -12.33,-5.93l-3.74 -5.23c-7.68,1.88 -17.46,8.64 -21.65,-5.04 10.32,0.39 13.58,-2.76 22.96,-3.04 1.28,-3.53 2.55,-7.56 4.09,-10.31 1.88,-3.32 4.37,-4.8 5.11,-8.16 -8.67,-8.7 -10.34,-3.96 -17.09,-4.29l-2.76 -5.03c-12.07,3.36 -18.8,-1.6 -23.04,-8.73 7.79,-0.21 13.02,-0.44 18.77,2.5 1.85,-1.91 2.86,-4.09 4.22,-6.26 3.5,-5.39 11.24,-10.42 14.05,-16 -2.91,-2.17 -3.96,-2.65 -7.89,-2.58 -5.41,0.11 -3,-0.61 -7.08,-2.44 -4.67,2.79 -6.42,6.09 -13.65,2.67 -3.93,-1.86 -6.82,-4.61 -8.53,-9.06l11.08 2.3c2.47,-2.33 1.44,-1.13 2.71,-4.29 4.08,1.09 1.65,0.78 5.31,2.41l1.81 -2.41c3.2,-3.54 10.82,-8.4 13.31,-12.09 -7.24,-6.06 -6.94,-4.26 -16.46,-3.71 -9.38,-13.14 -12.93,3.23 -18.53,-2.84 -2.26,-2.46 0.37,-2.83 -2.38,-5.57 -1.89,-1.87 -1.75,-0.24 -4.78,-2.02 1.91,-5.43 3.58,-2.19 6.95,-1.01 4.22,-2.97 -0.55,-2.2 4.11,-3.61l3.02 4.5c2.49,-0.43 5.39,-2.04 8.54,-3.08 3.92,-1.3 4.26,-1.98 6,-4.35 -2.41,-3.19 -3.95,-5.22 -7.64,-8.46 -3.17,-2.81 -7.24,-3.9 -10.13,-6.68l4.3 -6.57c-2.46,-3.39 -2.81,-1.2 -5.3,-4.7 0.87,-1.03 0.19,-0.4 1.62,-1.38 0.27,-0.21 7.29,-3.21 7.44,-7.13 0.17,-4.67 -5.56,1.73 -0.13,-13.31l-3.57 -2.78 1.41 -7.02c-6.49,1.41 -1.85,1.03 -5.51,2.65 -3.68,1.57 -1.41,-0.27 -4.17,0.63 -4.05,7.55 -4.09,14.98 -11.08,18.89 -2.57,-7.95 -2.73,-11.05 -1.44,-20.17 4.56,-0.37 4.5,1.37 9.52,-0.43 1.31,-4.3 -1.04,-4.59 -2.3,-8.99l6.09 -1.54c-1.09,-4.19 -2.51,-5.48 -1.67,-11.21 -11.64,2.26 -6.97,1.24 -11.74,10 -1.99,-11.21 4.51,-14.16 5.31,-23.16 -4.67,0.11 -0.98,0.48 -5.77,1.98 -1.07,-5.06 -0.37,-6.43 -2.87,-10.73l-0.94 2.14c-1.01,3.66 -0.53,7.77 -0.92,11.53 -3.89,0.84 -1.38,0 -5.72,-1.6 1.11,8.4 6.68,13.07 4.96,21.65 -2.63,-2.63 -2.82,-5.75 -3.59,-10 -2.99,1.06 -4.58,1.12 -8.43,0.46 0.42,7.63 3.28,8.38 2.19,16.49 2.8,2.65 3.13,1.25 4.22,5.15l-4.82 1.45c0.16,4.61 1.75,3.9 0.48,9.06 -7.9,1.09 -4.88,-4.69 -12.5,-5.14 -0.03,4.17 0.77,2.73 1.19,6.04 0.67,4.9 -1.01,2.3 -0.58,4.91 0.31,1.93 3.55,3.48 4.91,8.75 -2.39,2.87 -2.97,1.7 -3.65,5.65 3.84,3.87 7.1,1.33 11.48,5.17 6.21,5.44 8.7,5.22 9.83,7.35 -3.81,1.53 -7.28,2.96 -12.31,0.63 -8.63,-3.9 -1.27,-2.99 -11.08,-1.49 -4.03,-2.14 -2.97,-3 -7.05,-5.07 -1.3,0.83 -0.33,0.19 -1.6,1.35l-8.37 5.28c1.98,5.07 2.75,3.6 7.98,5.74 2.04,4.8 1.24,3.02 5.04,6.57 3.61,3.35 0.71,5.06 7.02,2.92 2.34,2.83 2.76,4.96 8.32,3.12 3.71,-1.22 4.74,-2.54 9.33,-2.99 -2.17,5.07 -6.46,9.02 -11.93,10.98 -2.28,-2.1 -3.65,-2.76 -6.73,-3.85l-7.92 3.08c-2.8,0.58 -5.8,1.28 -8.48,1.72 -0.33,12.64 9.52,11.99 12.27,18.11 -7.42,2.95 -9.04,-3.33 -8,8.46 -11.77,0.06 -6.52,0.18 -14.82,2.96 -4.21,1.4 -3.52,0.27 -7.55,0.08 -3.13,-0.16 -4.08,0.79 -6.69,1.44 -6.39,-8.85 -9.54,-1.98 -18.36,-1.67 -1.46,-3.11 -4.59,-5.07 -6.63,-7.59 4.4,-1.64 5.94,-0.07 9.91,-2.89 1.38,2.59 1.77,2.88 4.02,4.72 4.75,-2.86 7.48,-2.49 13.41,-5.09 -1.98,-6.46 -11.03,-9.06 -16.35,-12.99l3.11 -4.7 -4.46 -3.58c2.3,-1.51 4.58,-2.15 7,-3.95 0.29,-3.42 -0.93,-16.28 -2.71,-18.81 -3.24,1.3 -3,1.98 -6.33,2.59 -5.31,1 -4.98,8.11 -12.53,13.49 -2.17,-2.37 -4.06,-13.26 0.07,-14.45 7.61,-2.23 11.83,1.8 5.39,-7.19l3.05 -1.29c4.77,-1.76 -0.74,0.59 2.17,-0.63l-1.89 -7.35c-4.5,0.19 -6.47,1.94 -9.4,4.4l-1.28 1.01c-0.13,-0.16 -0.46,0.37 -0.69,0.5 0.37,-8.4 3.44,-7.79 5.49,-14.58l-1.59 -0.45c-6.98,-2.13 -1.69,-2.3 -6.34,-7.82 -1.09,2.73 -1.14,6.65 -1.46,10.3 -4.56,0.14 -1.87,-0.23 -5.75,-0.69l1.88 7.55 -9.51 1c0.13,6.13 3.98,3.68 2.25,12.69l3.82 2.68c-1.64,1.17 -1.9,1.03 -3.89,2.15 0.72,12.41 -4.4,3.98 -11.93,2.78 0.95,8.27 -0.15,8.29 4.33,13.33l-2.73 4.66c0.24,0.18 0.61,0.32 0.8,0.43l20.2 9.15c-11.5,4.42 -10.85,-0.8 -17.5,-1.04 -7.42,-0.26 -0.34,4.39 -12.98,-3.47 -1.86,1.08 -6.89,4.34 -9.2,6.13 5.83,3 8.99,7.17 15.42,10.33 13.65,6.7 9.46,0.06 20.73,1.35 -1.2,2.22 -3.68,4.29 -5.94,5.38 -4.19,2.06 -4.61,0.53 -8.98,-0.13 -6.47,-0.95 -15.16,1.17 -19.11,3.96 1.19,7.5 8.21,6.78 11.35,12.53l-7.55 0.58 -0.74 5.86c-8.69,-1.01 -11.32,4.08 -17.12,-0.11 2.04,-4.39 4.96,1.03 3.45,-9.06l-10.13 -0.08 3.4 -8.8 -7.96 -6.67 -2.81 5.59c-3.29,-0.27 -2.83,-0.5 -4.87,-2.41 0.47,-2.73 2.09,-2.17 2.46,-4.93 0.16,-1.44 -0.66,-3.66 -0.48,-6.58l-11.58 1.12c2.04,-4.69 3.58,-3.34 4.43,-8.77 -2.81,-1.36 -2.46,-0.59 -6.04,-0.94 -1.78,-3.71 0.16,-3.97 -4.29,-5.52l-1.12 7.21 -5.61 1.14c0.8,5.97 5.54,7.32 -7.03,7.26 1.83,7.18 1.96,11.45 2.34,19.45 -6.84,-0.35 -5.88,-2.52 -12.77,-3.39 0.95,6.33 0,8.4 4.46,11.37l-2.09 4.98c2.67,1.72 4.93,1.72 8.29,3.47 3.24,1.7 5.31,2.82 7.16,4.96 -6.3,-0.72 -12.65,-2.04 -19.06,-3.28 -8.54,-1.65 -8.75,1.14 -17.15,2.84 3.42,1.88 19.09,10.82 20.63,12.75 -5.94,3.3 -13.37,2.48 -16.8,4.74 0.5,5.62 3.26,5.38 6.5,8.5 -1.16,3.43 -2.46,2.13 -2.99,6.02l-11.69 1.4c-0.1,-4.11 3.63,-12.49 -11.89,-12.37 -0.98,-3.48 -1.17,-3.79 -3.26,-5.78 -6.07,1.8 -17.84,9.6 -22.08,-4.98 6.87,-0.06 17.15,-2.23 23.27,-3.79 1.67,-3.05 2.14,-7.02 3.97,-10.58 1.76,-3.48 3.9,-5.31 5.11,-8.61 -1.44,-2.07 -7.16,-6.1 -9.27,-7.29 -3.5,1.14 -3.95,2.15 -8.17,2.42l-1.64 -6.23c-4.64,3.31 -9.99,3.79 -15.16,0.55 -3,-1.87 -7.72,-7.92 -9.59,-8.69 10.54,-1.07 11.66,-0.18 19.5,2.09 1.48,-1.91 2.83,-4.43 4.16,-6.34l14.93 -17.1c-0.56,-0.56 -0.37,-0.53 -1.65,-1.32l-6.44 -1.65c-8.25,-0.69 -2.44,-0.4 -8.06,-2.73l-5.94 5.33c-7.11,-1.07 -12.73,-4.88 -15.14,-11.05 7,0.39 5.99,1.44 10.79,2.58l2.47 -6.18 4.88 2.99 14.74 -16.14c-5.88,-5.8 -8.37,-4.54 -15.83,-3.15 -1.86,-3.23 -3.47,-4.7 -6.97,-6.49 -4.4,1.43 -4.4,3.44 -9.01,4.93 -3.21,-1.88 -7.34,-7.58 -8.35,-11.58l0.02 -1.03c1.96,-0.67 3.28,0.5 5.3,1.2 1.57,-1.57 1.77,-2.47 4.24,-3.34l3.21 4.7c2.28,-0.64 3.69,-1.85 7.19,-2.8 17.54,-4.66 -2.68,-11.06 -4.51,-19.44l-5.3 -1.88c1.11,-5.35 2.25,-2.5 3.57,-7.56 -2.36,-2.81 -3.52,-1.69 -5.37,-4.72 1.43,-2.65 5.07,-3.53 8.05,-5.39 0.64,-10.01 -3.89,-2.76 -0.69,-14.21 1.78,-6.3 0.15,-1.26 -1.33,-6.07 -1.04,-3.31 -0.18,-4.45 -0.43,-7.85 -3.21,2.93 -4.7,2.52 -9.41,4.26 -3.63,8.16 -3.63,14.9 -10.48,19.78 -1.67,-7.02 -2.41,-14.82 -1.46,-22.61 4.9,0.24 5.56,2.86 9.78,-0.83 1.91,-3.92 -2.25,-4.69 -2.99,-9.41 3.31,0.03 3.87,0.66 6.43,-1.07 -0.07,-3.63 -1.8,-3.12 -2.22,-5.85 -0.34,-2.26 1.06,-3.76 1.64,-6.28 -1.83,0.24 -7.53,2.15 -8.61,2.96 -2.63,2.12 -1.14,4.04 -4.37,7.21 -1.4,-1.77 -1.14,-4.24 -0.69,-6.1 1.69,-6.83 5.36,-10.6 5.67,-17.63 -5.43,0.95 -1.11,1.38 -5.53,1.75 -0.98,-4.5 0.04,-7.69 -2.31,-10.74 -2.04,3.72 -1.48,7.96 -2.28,12.96 -1.61,1.14 -0.68,0.3 -2.63,0.61 -0.24,0.03 -1.17,0.11 -1.38,0.15l-1.41 0.21c1.89,9.78 5.14,10.28 3.92,22.13l-2.94 -10.26c-4.4,-0.16 -5.35,2.59 -7.98,-2.07 -1.4,9.92 4.99,7.31 1.49,19.48 2.71,2.59 2.17,1.09 4.03,3.76 -2.19,5.46 0.7,-1.13 -2.7,2.47 -0.77,0.83 -1.48,-2.31 -1.17,2.96 0.13,2.31 2.59,4.38 -0.11,6.87 -3.45,3.21 -5.35,-4.06 -12.51,-5.12 0.77,7.89 5.04,5.89 -0.19,11.5 3.07,3.11 4.61,4.03 6.34,9.65 -2.76,3.07 -3.28,1.77 -4.26,7.07 3.9,0.87 9.33,1.99 11.72,5.07 3.65,4.67 4.53,3.95 9.5,5.15l1.59 0.64c-0.67,2.83 -0.37,2.93 -3.37,3.73 -1.81,0.5 -4.87,0.37 -6.71,-0.02 -2.86,-0.63 -6.28,-2.75 -8.08,-4.66 -8.35,1.61 6.3,-2.22 -2.22,1.01 -4.82,1.85 -6.79,-1.19 -10.66,-4.69 -2.25,1.31 -9.44,6.48 -10.21,8.61 2.92,4.24 3.45,2.76 8.49,4.56l-0.24 6.15 5.03 -1.85c1.67,8.58 2.31,6.41 8.46,5.33l-0.42 4.99c8.06,0.35 9.28,-3.56 16.99,-4.74 -1.67,3.53 -3.81,5.85 -6.07,8.2 -2.49,2.65 -4.51,4.19 -8.74,2.23 -6.73,-3.11 -3.21,-1.49 -10.48,0.52 -3.5,0.94 -7.15,1.43 -10.47,2.31 0,13.02 10.15,13.01 12.19,19.29 -3.79,1.98 -6.39,-0.03 -8.06,2.47 -0.75,1.14 0.4,4.98 0.07,7.93 -4.52,-0.03 -2.15,-0.45 -6.23,-1.96 -2.71,4.45 -4.27,1.8 -8.38,3.81 8.22,13.65 18.1,13.91 22.51,22.92 1.77,3.65 4.34,6.05 5.28,9.15 -6.6,2.74 -8.89,5.23 -17.09,1.72l-7.16 3.9c-2.18,0.87 -0.87,0.21 -2.13,1.04 1.51,7.08 5.28,11.71 10.33,15.98 3.13,2.65 3.08,1.35 4.29,5.01 -7.04,2.25 -11.16,-1.13 -16.35,1.7 -3.89,3.76 10.18,15.56 13.04,17.65 4.66,-0.56 2.12,-0.8 6.06,-2.84 5.76,9.2 -4.42,13.39 -13.1,15.37 -8.29,1.86 -9.62,10.58 -19.46,9.8 -0.24,-3.05 0.4,-2.09 1.43,-5.35 -3.55,-0.72 -2.55,0.18 -3.98,-2.47 5.38,-2.01 7.02,-1.17 6.36,-6.87 -0.5,-4.26 -0.69,-8.3 -1.3,-12.27 -5.25,1.69 -3.96,2.12 -10.45,1.48 -0.77,5.54 -3.79,9.8 -8.74,11.96 -2.84,-3.53 -3.5,-6.55 -2.94,-12.13l11.7 -0.17 -2.55 -4.77c4.8,-4.27 3.79,-0.67 2.7,-8.44 -7.15,0.29 -8.9,1.85 -11.56,6.28 -0.91,-6.54 3.37,-8.67 4.59,-13.87 -0.19,-0.09 -0.52,-0.11 -0.61,-0.13l-4.53 -0.82c-1.57,-4.16 0.83,-3.05 -3.23,-4.82l-0.78 6.92c-1.66,0.74 -1.41,0.35 -2.7,0.82 -2.2,0.74 -0.54,-0.16 -2.3,0.93l1.88 5.56 -9.91 0.3c1.65,8.4 2.57,9.91 1.96,19.59 -6.24,0.37 -3.84,-0.69 -7.59,-2.14 -4.22,-1.62 -3.84,0.15 -8.9,-1.09 -4.19,-1.06 -7.96,-4.85 -12.38,-6.54 0.5,-7.39 2.87,-2.59 -2.94,-7.26 2.55,-1.56 4.74,-1.69 7.56,-3.71l-2.36 -14.66c-15.29,-0.8 -9.71,11.8 -20.46,11.66 -4.16,-12.72 4.26,-8.11 7.9,-12.57 2.84,-3.82 -1,-0.06 0.61,-3.92l2.87 -3.24 -1.53 -4.5c-3.47,-0.1 -4.32,-0.29 -7.08,1.41 -3.28,2.04 -0.93,2.13 -4.55,3.02 0.1,-4.9 2.94,-7.37 5.16,-11.26l-2.36 -1.88c-2.8,-2.41 -2.06,-3.95 -5.17,-5.62 -4.11,-2.25 -8.56,0.18 -11.71,-0.45 -3.11,-0.63 -3.84,-4.62 -9.12,-4.17 -4.94,0.42 -2.78,3.18 -10.97,2.26 -3.77,-4.63 2.72,-3.37 -7.24,-6.94 1.51,-2.86 0.64,-1.69 3.13,-3.74l3.84 2.52 4.02 -2.93c1.67,1.37 2.98,2.76 4.46,4.46 4.35,-3.23 8.06,-2.39 13.6,-6.04 -1.99,-7.07 -10.84,-9.89 -16.2,-15.24 0.77,-4.09 1.27,-2.22 2.8,-5.69 -2.25,-2.57 -3,-1.4 -4.66,-4.7 2.43,-1.67 5.06,-2.94 7.35,-4.5l-2.6 -23.46 -6.74 3.36c-6.04,2.25 -5.22,13.33 -13.26,17.42 -0.83,-7.67 -2.19,-11.24 -0.77,-19.32 5.69,0.4 5.48,1.03 10.15,-0.59 -0.58,-5.57 -2.19,-4.29 -3.84,-8.05l6.7 -0.91c-1.46,-5.2 -2.04,-5.75 0.22,-10.19 -13.5,1.81 -7.63,2.41 -13.3,8.53 -2.04,-2.41 -0.77,-6.15 0.54,-9.01 6.34,-13.38 4.37,-8.35 -0.22,-10.2 -3.55,-1.44 0.95,2.89 -1.43,-1.22 -1.06,-1.85 -0.29,-4.13 -1.89,-5.86 -2.36,3.29 -1.41,5.86 -2.06,10.37l-5.38 -0.19c0.66,5.57 6.36,12.01 3.41,16.86 -2.17,-2.91 -0.85,-5.69 -3.37,-6.89 -1.97,-0.93 -3.89,0.82 -7.95,-0.79 1.03,9.65 4.82,4.96 1.99,16.57 3.72,1.12 2.43,0.05 4.18,2.57 -1.64,1.96 -2.31,1.51 -4.05,2.83 2.54,16.14 -3.89,4.35 -12.22,3.41 0.85,4.53 1.38,8.72 3.28,12.78 3.31,7.13 0.18,3.71 -1.81,9.31 1.61,1.43 -0.15,0.58 3.08,1.73l6.22 1.72c3.89,1.86 1.46,3.45 6.44,5.19l6.31 1.69c-10.44,6.15 -9.06,3.23 -18.15,-1.64 -2.56,1.98 -2.39,3.92 -6.83,1.61 -2.67,-1.41 -2.47,-2.31 -6.26,-3.89l-2.09 1.98c-2.76,2.1 -5.49,1.77 -7.15,4.82 2.69,3.95 2.75,1.54 6.23,3.72 5.85,3.69 1.81,5.39 11.02,8.8 4.66,1.7 1.69,0.29 5.07,3.78 5.97,-0.05 8.46,-2.52 14.07,-3.36 -1.09,4.53 -2.1,4.91 -5.75,7.2 -5.51,3.47 -3.1,2.41 -8.17,0.38 -3.65,-1.41 -15.98,1.72 -19.93,3.39 -0.32,5.41 1.24,7.04 4.38,9.44 2.31,1.74 5.74,3.92 7.29,6.65l-7.96 3.48c-0.02,0.29 -0.05,0.56 -0.06,0.89l0.3 3.98c-7,-1.38 -7.79,0.37 -14.31,1.67 2.55,5.11 7.93,10.02 13.87,12.43 5.99,2.46 4.27,1.78 7.32,6.34 1.88,2.84 3.53,4.78 5.2,8.03 -5.38,3 -6.19,4.03 -13.67,2.59 -6.73,-1.32 -0.51,-1.19 -5.54,0.9 -2.57,1.08 -3.69,0.74 -6.24,1.81 0.46,9.88 11.26,13.07 14.02,17.73 -3.59,1.11 -5.68,0.8 -10.04,0.92 -7.16,0.18 -8.53,4.32 -15.33,4.54 -2.3,0.06 -4.72,-1.16 -5.19,-3.08 -0.06,-0.3 -0.3,-0.37 -0.51,-0.52 -9.99,3.13 -18.82,-0.88 -23.48,-7.26 8.5,0.13 11.89,-0.59 19.46,2.04 3.21,-3.26 5.62,-6.33 9.15,-9.51l7.32 -6.37c1.41,-1.41 0.9,-0.77 1.64,-2.25 -3.87,-2.39 -6.87,-1.16 -11.46,-2.59 -6.97,-2.13 -3.13,-1.11 -8.77,1.59 -6.31,2.99 -14.55,-4.06 -16.64,-7.26 16.35,1.13 8.3,0.19 14.18,-1.61 2.99,-0.9 3.12,0.07 5.4,-1.57 2.68,-1.96 1.67,0.94 4.5,-0.58 2.25,-1.17 4.67,-4.98 6.83,-6.81l2.25 -1.96c-6.38,-5.69 -7.53,-2.96 -15.48,-2.99 -9,-11.55 -20.12,7.74 -19.61,-7.59l-6.12 -0.87 1.85 -2.46c2.25,0.47 3.24,1.48 4.61,2.68l3.26 -4.01c2.86,1.25 2.57,1.54 4.7,3.84 2.26,-0.85 4.03,-1.75 6.71,-2.35 3.71,-0.79 4.3,-0.9 6.84,-2.04 -0.24,-7.26 -9.83,-8.87 -15.06,-12.49 -0.8,-6.17 1.03,-2.33 1.57,-7.6 -2.87,-2.23 -2.49,-0.59 -3.8,-3.77 4.38,-2.6 5.28,-1.98 8.01,-6.6 -1.44,-3.32 -1.57,-1.25 -3.18,-4.74 1.14,-1.93 1.78,-2.76 2.67,-4.7 -1.66,-2.38 -4.21,-5.03 -1.81,-8.98 -5.17,1.14 -3.84,2.76 -10.81,1.85 -0.82,6.97 -4.46,13.49 -9.95,15.9 -1.75,-6.84 -2.33,-8.27 -1.7,-16.56l12.04 0.42 -3.31 -6.8c2.15,-2.31 1.27,-0.91 4.21,-2.81l-1.04 -8.43c-11.16,1.13 -6.5,1.59 -11.8,7.19 -1.93,-8.4 3.31,-9.49 5.15,-16.72 -3.37,-1.83 -4.46,1.75 -5.99,-2.2 -1.54,-4.08 1.54,-3.48 -3,-6.34l-1.86 11.29 -4.21 -1.33c-0.29,6.6 6.5,11.28 3.08,16.37l-2.65 -6.83 -8.93 0.34c1.35,4.03 2.19,9.14 3.79,13.41 1.38,3.76 1.78,1.76 0.42,6.55 -0.64,2.3 -1.48,4.09 -2.07,6.44 -6.15,-0.83 -4.87,-3.58 -11.66,-4.8 0.87,7.87 1.27,9.99 4.66,15.24 -1.41,4.14 -2.68,2.01 -2.86,6.31 4.59,2.44 7.29,0.26 11.26,3.53 6.63,5.48 1.64,1.7 9.68,4.15 -1.73,7.74 -11.43,2.41 -15.21,0.96 -7.72,-3 -1.46,1.44 -8.72,-0.02 -2.12,-0.46 -4.77,-2.81 -6.43,-3.68l-10.02 5.75c3.53,3.3 12.89,9.22 17.54,11.87 10.45,5.99 10.82,0.67 21.49,-0.35 -3.44,4.13 -8.11,10.91 -16.2,7.59 -5.46,-2.25 -4.37,-0.06 -10.68,0.98 -4.08,0.67 -6.18,0.35 -9.62,2.57 0.92,7.58 7.79,8.06 11.61,13.22 -3.35,2.02 -2.74,0.53 -6.54,1.49 -1.85,3.31 -0.77,2.46 -0.95,6.65 -7.58,-1.7 -7.15,0.24 -13.33,1.61 1.33,3.18 0.22,1.04 1.83,3.24l4.56 4.22c6.49,5.09 16.38,7.31 18.97,16.77 -8.11,5.65 -16.3,0.8 -24.64,4.7 -0.66,5.43 4.64,6.61 -0.24,8.4 -3.98,1.43 -6.41,-1.22 -12.09,1 -4.82,1.88 -13.33,0.69 -15.13,-6.01 12.26,1.22 23.02,-2.67 31.49,-10.95 -8.11,-2.8 -2.91,-2.88 -13.52,-2.51 -3.13,0.11 -7.5,-3.19 -9.86,-4.8 -3.55,2.44 -3.21,3.66 -9.91,3.66 -2.69,-2.56 -5.4,-4.39 -7.15,-6.73 6.12,-2.23 10.56,-1.87 15.16,1.75l2.04 -1.76c2.31,-1.33 6.5,-1.56 9.14,-2.52 -0.26,-4.67 0.9,-1.96 -2.49,-4.67 -3.78,-3.11 -8.77,-5.04 -12.67,-7.9 1.06,-3.45 1.09,-0.98 2.19,-4.94l-4.26 -2.59c2.04,-1.59 6.12,-3.47 8.05,-4.7 -0.63,-3.34 -1.56,-3.8 -1.77,-7.58 -0.22,-4.05 0.63,-5.15 -0.85,-8.77 -0.55,-0.15 -0.55,-0.21 -1.99,-0.06l-4.54 1.12c-3.97,1.27 -2.7,0.05 -4.83,4 -2.6,4.85 -3.08,7.26 -9.14,8.59 -1.17,-3.9 -1.49,-8.48 -0.93,-13.2 8.04,-0.02 11.46,1.25 8.41,-5.83 4.78,-3.9 3.5,-3.05 3.04,-9.47 -6.39,0.96 -7.93,1.49 -11.48,5.03 -0.14,-8.08 3.55,-6.97 4.21,-13.49 -4.74,-1.78 -2.19,2.59 -4.99,-2.06 -1.9,-3.16 1.07,-3.05 -3.6,-4.37l-0.74 9.36c-1.03,-0.05 -3.26,-0.37 -3.39,-0.37l-1.81 0.29c1.48,2.86 5.27,9.24 4.3,12.16 -4.21,-1.44 -1.38,-1.51 -4.02,-5.04l-8.81 -0.61c1.81,6.47 2.8,11.58 6.49,15.11l-3.68 1.96 0.61 5.31c-7.65,1.65 -5.61,-3.35 -12.08,-2.87 -0.77,4.77 -0.26,5.81 1.8,9.46 3.92,6.89 0.46,3.1 -0.05,8.44 11.22,0.9 11.3,7.45 19.17,7.37 -7.98,2.38 -12.7,1.38 -20.41,-0.45 -12,-2.76 -8.35,-1.86 -18.52,1.61l3.96 3.61c1.86,1.19 2.7,1.52 4.3,2.5 2.48,1.5 4.85,2.99 8.16,4.63 12.99,6.34 10.3,0.7 21.02,0 -7.55,12.57 -16.81,3.23 -30.22,7.48 -2.87,0.91 -5.96,2.98 -8.96,4.8l-10.02 -3.84c-0.7,-7.11 2.31,-7.27 2.59,-13.74 -5.83,-0.83 -13.76,1.64 -19.96,-1.11 -3.17,-1.38 -2.54,-0.5 -2.8,-3.93 1.75,-1.25 -0.27,-0.22 2.28,-0.93l5.06 -0.83c2.52,-0.72 3.08,-1.64 4.93,-3.02l-2.04 -6.56c4.13,-2.79 2.49,1 6.13,-2.62 0.74,-0.72 2.14,-3.37 3.12,-4.67 4.35,-5.72 9.22,-9.86 0.9,-15.63 -3.53,-2.44 -3.98,-1.01 -8.38,-0.69 0.32,-5.2 0.51,-4.43 -2.94,-7.4 -2.81,1.2 -0.9,0.43 -2.84,1.86 -6.58,4.88 -20.14,3.21 -18.95,-7.55 7.53,0.66 4.39,1.24 11.64,-1.13 4.8,-1.56 10.49,-0.02 12.26,-4.65 0.22,-0.58 0.3,-0.93 0.46,-1.5 2.12,-7.4 8.09,-16.78 8.24,-18.34 -12.41,-10.58 -8.24,-5.27 -16.81,-4.8 -2.25,-2.69 -1.04,-3.17 -1.89,-6.28zm856.8 237.78l-9.33 0.03c2.31,-4.41 6.67,-4.75 11.69,-2.06 -0.8,0.82 -1.57,1.5 -2.36,2.02zm-621.44 -69.69l-17.89 -4.26c1.06,-1.56 1.77,-3.2 3.87,-4.3 0.76,-0.4 1.44,-0.4 2.8,-1.13 2.68,-1.38 2.5,-1.49 3.6,-4.11 6.47,0.72 7.87,2.87 12.19,1.14 3.34,-1.33 7.77,-3.97 11.64,-1.8 -3.21,3.35 -8.56,5.51 -13.71,7.24 1.24,5.72 1.31,0.85 3.71,6.31l-6.2 0.9zm-96.8 -25l-1.83 -0.52c0.61,-0.29 1.27,-0.57 2,-0.82l-0.17 1.33zm-17.94 -5.22l-7.02 -2.09c0.82,-0.42 1.99,-0.46 4.21,0.39 0.96,0.35 1.89,0.96 2.81,1.7zm972.06 -98.34c0.64,1.75 0.98,3.39 0.61,4.51l-1.54 -0.63c0.13,-1.03 0.37,-2.31 0.93,-3.89zm-8.74 9.76c0.77,1.57 1.72,2.99 3,4.21l-3.69 1.96 0.54 4.58c-0.51,0.37 -1.03,0.72 -1.56,1.01 -5.74,0.63 -4.48,-3.6 -10.46,-3.15l-0.21 1.57c-2.7,-1.62 -4.75,-3.89 -5.99,-6.79 9.46,-0.68 10.89,-1.94 18.35,-3.39zm6.74 45.81l0.56 -0.03c-1.75,2.91 -3.58,4.61 -5.54,5.62l-1.44 -0.53c0.16,-0.22 0.4,-0.48 0.56,-0.59l3.71 -2.7c1.03,-0.69 1.7,-1.25 2.15,-1.77zm157.13 103.64c5.28,-1.2 5.57,1.37 9.99,0.05 3.15,-0.92 1.94,-2.52 7.85,-4.58l3.81 2.84c-2.28,2.99 -6.12,4.32 -11.11,5.81 -5.38,1.57 -9.33,0.98 -10.54,-4.13zm-112.38 -33.59c1.24,1.91 2.5,3.54 2.87,6.35 -7.98,0.77 -13.02,-1 -15.96,-5.27l13.09 -1.08zm291.44 -1.14c3.45,-1.46 6.66,-1.11 10.23,0 1.67,0.51 2.62,0.9 4.16,1.72l3.13 2.06c-3.26,1.72 -6.63,1.8 -10.95,0.55 -0.74,-0.21 -3.48,-1.28 -4.16,-1.7l-2.41 -2.62zm-176.12 -9.72c6.47,0.72 7.87,2.87 12.19,1.14 3.34,-1.33 7.76,-3.97 11.63,-1.8 -3.2,3.35 -8.56,5.51 -13.7,7.24 1.24,5.72 1.3,0.85 3.69,6.31 -9.72,1.38 -21.41,3.54 -31.94,0.96 9.2,-1.44 7.21,-6.25 11.72,-8.62 0.77,-0.4 1.45,-0.4 2.81,-1.13 2.68,-1.38 2.51,-1.49 3.6,-4.11zm320.16 -4.29c1.13,-3.65 2.39,-4.37 6.23,-5.91l-0.29 4.94 -5.94 0.96zm179.81 -3.28c1.19,-0.59 19.19,-6.02 21.46,-6.41 -1.2,3.23 -0.9,2.7 -3.66,4.53 -6.74,4.46 -9.24,3.98 -17.8,1.88zm-295.87 -9.24c4.08,-0.05 5.48,0.84 8.06,2.93 -2.78,3.11 -6.28,3.44 -11.5,1.67l3.44 -4.59zm96.15 -0.43c5.22,-0.13 6.44,0.61 7.48,4.93 -5.11,0.59 -6.97,-0.85 -7.48,-4.93zm-437.73 1.46c8,-0.8 9.78,0.48 16.52,0.69 7.39,0.24 4.05,-5.7 11.04,-3.05 3.45,1.28 6.54,5.83 9.23,7.58 4.93,3.2 6.54,-0.27 11.67,-1.99 -1.17,7.78 2.06,11.72 -21.9,3.98 -9.75,-3.15 -18.26,3.13 -26.56,-7.21zm442.56 -5.65c0.39,-4.4 3.21,-5.54 3.41,-6.34 0.06,-0.34 0.32,-0.39 0.46,-0.58l12 8.48c-4.78,0.42 -12.04,0.19 -15.87,-1.56zm-400.23 -2.84c-3.29,2.25 -6.49,2.12 -9.28,-0.95 1.38,-4.02 7.21,-2.6 9.28,0.95zm302.6 -0.63c2.31,-1.03 0.43,-0.16 2.09,-1.13 1.59,-0.91 0.26,-0.19 1.88,-1.16 1.11,-0.64 1.8,-1.07 3.23,-1.69 2.74,-1.14 5.07,-1.62 8.14,-2.12 -3.87,14.1 -24.96,9.02 -34.78,6.91 -7.79,-1.7 -5.97,1.61 -12.75,1.67 -2.55,-2.15 -1.28,-2.28 -3.02,-3.81 -1.33,-1.16 -0.14,-0.5 -2.61,-1.41 -1.72,-0.64 -0.29,0.24 -1.99,-0.4 2.18,-4.46 2.25,-0.67 4.62,-0.63 0.16,0 0.45,0 0.63,-0.03 1.33,-0.11 1.86,-0.56 2,-0.59 3.85,-0.91 6.35,0.35 11.4,0.27 12.67,-0.22 12.26,-1.69 21.17,4.11zm-217.02 2.73c2.2,-4.96 4.96,-11.79 11.18,-13.84l6.65 5.93c6.43,-1.16 3.68,-3.93 8.29,-4.38l-1.14 9.17c-7.66,3.55 -15.26,6.73 -24.43,9.19 -10.54,2.87 -17.81,5.88 -23.03,-3.6 8.33,0.56 13.33,-2.52 22.48,-2.46zm147.32 -21.3c5.17,-3.47 10.45,1.27 15.08,3.24 -4.57,3.55 -12.59,1.37 -15.08,-3.24zm370.81 2.7c-0.48,-0.28 -1.25,-0.96 -1.67,-1.3 -0.11,-0.09 -0.4,-0.24 -0.48,-0.53 -0.08,-0.32 -0.32,-0.37 -0.46,-0.55 2.07,-2.23 2.2,-2.96 6.07,-3.9 1.3,3.56 1.8,3.23 0.56,7.31 -2.1,-0.08 -2.7,-0.24 -4.02,-1.03zm-213.31 -5.2c3.04,-1.77 3.52,0.05 6.49,-3 1,-0.98 2.54,-3.95 3.47,-5.12 6.58,6.49 24.93,11.1 26.79,18.37 -6.5,3.37 -4.76,2.04 -12.22,1.29 -9.36,-0.93 -26.16,8.85 -35.19,-0.21 6.6,-5.03 13.15,2.39 10.66,-11.32zm175.78 -4.51c14.47,-3.37 28.19,-6.84 32.61,7.02 -9.25,-0.53 -5.67,-1.65 -10.72,-4.38 -9.27,3.69 -16.03,3.89 -21.89,-2.63zm-358.87 -8.5c6.09,1.54 2.7,2.75 10.57,1.46 6.78,-1.11 5.27,-1.62 10.28,-3.74 0.67,3.84 2.43,6.81 3.05,9.46 -8.26,4.26 -6.06,0.31 -13.23,-1.01 -7.26,-1.33 -5.4,4.06 -13.59,0.79 -0.21,-3.5 1.31,-4.81 2.92,-6.95zm396.3 -4.93c-2.71,3.28 -2.33,2.33 -6.98,2.1 0.94,-3.85 3.72,-5.67 6.98,-2.1zm-102.34 -8.16c-1.22,-4.42 -3.29,-15.72 4.69,-12.9 1.86,0.65 8.09,8.33 8.78,10.67 -4.14,2.89 -7.46,3.18 -13.47,2.23zm-17.6 -20.09c2.44,-0.48 2.56,-0.11 4.76,0.21 -0.45,7.89 -6.28,5.35 -8.11,1.59 0.64,-0.55 0,-1.16 3.35,-1.8zm73.73 -9.91c6.04,-0.96 15.16,-1.62 20.33,-3.63 6.71,-2.62 6.12,-7.5 14.74,-8.51 3.6,7.71 6.57,6.73 13.2,11.11l9.62 13.69c-4.35,3.68 -11.03,6.36 -17.2,2 -3.87,3.55 -2.65,2.96 -8.67,3.95 1.16,6.13 3.18,8.06 5.59,12.67 -4.87,-0.35 -7.18,-1.48 -12.35,0.24l-2.62 -3.79c-5.83,0.45 -8.44,1.99 -14.65,-0.34 -3.56,-1.33 -7.82,-3.66 -9.73,-6.36 9.72,-0.16 10.94,-0.1 19.4,1.99 6.2,-8.37 13.1,-11.11 17.7,-16.03 -4.43,-3.29 -13.84,-3.54 -19.7,-1.86 -9.97,2.83 -11.16,-3 -15.66,-5.14zm-384.38 -5.63c2.15,5.76 5.83,5.59 1.33,11.16 -7.32,0.48 -13.6,-5.28 -16.12,-9.88l10.65 2.31 4.15 -3.59zm283.6 -8.46l7.93 0.43c0.15,3.05 0.29,6.81 -4.98,8.63 -5.14,1.78 -0.64,0.53 -2.95,0.02l0 -9.07zm-778.77 166.22c4.77,-1.62 11.15,-1.31 16.93,-1.61 6.57,-0.32 9.48,-1.43 14.98,-2.84 -3.23,6.6 -8.56,3.15 -15.03,9.44 -7.02,0.3 -12.29,-2.54 -16.88,-5zm-7.93 -27.83c3.65,-2.23 4.03,-1.99 9.07,-1.56 6.49,0.53 3.98,-0.07 8.53,-2.28 7.52,7.61 6.84,4.08 14.6,1.56 -0.39,5.76 1.24,6.73 -4.3,7.76 -9.72,1.8 -21.07,0.47 -27.89,-5.48zm-421.66 -12.52c3.45,-1.46 6.67,-1.11 10.23,0 1.65,0.51 2.62,0.9 4.16,1.72l3.12 2.06c-3.24,1.72 -6.62,1.8 -10.94,0.55 -0.76,-0.21 -3.48,-1.28 -4.16,-1.7l-2.41 -2.62zm447.91 0c-4.11,2.1 -4.91,0.69 -6.02,0.46l0.21 -3.65c4.02,-0.5 4.27,0.1 5.81,3.18zm-303.88 -14c1.14,-3.65 2.39,-4.37 6.25,-5.91l-0.29 4.94 -5.96 0.96zm179.83 -3.28c1.17,-0.59 19.19,-6.02 21.46,-6.41 -1.22,3.23 -0.92,2.7 -3.66,4.53 -6.76,4.46 -9.25,3.98 -17.8,1.88zm-295.87 -9.24c4.08,-0.05 5.48,0.84 8.05,2.93 -2.78,3.11 -6.28,3.44 -11.48,1.67l3.44 -4.59zm96.15 -0.43c5.2,-0.13 6.44,0.61 7.46,4.93 -5.11,0.59 -6.95,-0.85 -7.46,-4.93zm4.83 -4.19c0.37,-4.4 3.21,-5.54 3.39,-6.34 0.06,-0.34 0.34,-0.39 0.48,-0.58l11.98 8.48c-4.78,0.42 -12.04,0.19 -15.85,-1.56zm-400.23 -2.84c-3.31,2.25 -6.5,2.12 -9.3,-0.95 1.38,-4.02 7.21,-2.6 9.3,0.95zm302.58 -0.63c2.31,-1.03 0.44,-0.16 2.09,-1.13 1.59,-0.91 0.27,-0.19 1.89,-1.16 1.09,-0.64 1.78,-1.07 3.21,-1.69 2.76,-1.14 5.07,-1.62 8.16,-2.12 -3.87,14.1 -24.96,9.02 -34.8,6.91 -7.79,-1.7 -5.98,1.61 -12.74,1.67 -2.55,-2.15 -1.3,-2.28 -3.04,-3.81 -1.33,-1.16 -0.14,-0.5 -2.6,-1.41 -1.72,-0.64 -0.31,0.24 -2.01,-0.4 2.18,-4.46 2.25,-0.67 4.62,-0.63 0.18,0 0.47,0 0.63,-0.03 1.33,-0.11 1.88,-0.56 2.01,-0.59 3.85,-0.91 6.36,0.35 11.42,0.27 12.66,-0.22 12.26,-1.69 21.15,4.11zm-217.02 2.73c2.22,-4.96 4.98,-11.79 11.18,-13.84l6.65 5.93c6.44,-1.16 3.68,-3.93 8.29,-4.38l-1.14 9.17c-7.64,3.55 -15.25,6.73 -24.43,9.19 -10.52,2.87 -17.81,5.88 -23.03,-3.6 8.35,0.56 13.33,-2.52 22.48,-2.46zm687.33 -14.44c22.34,0.69 21.71,-3.68 35.26,-5.6 -2.23,2.76 -5.51,4.67 -10.15,6.44 -6.82,2.63 -5.52,2.06 -9.89,5.98 -7.42,-0.13 -12.29,-3.05 -15.22,-6.81zm-540.01 -6.86c5.19,-3.47 10.45,1.27 15.08,3.24 -4.56,3.55 -12.59,1.37 -15.08,-3.24zm370.81 2.7c-0.46,-0.28 -1.25,-0.96 -1.65,-1.3 -0.13,-0.09 -0.42,-0.24 -0.5,-0.53 -0.07,-0.32 -0.31,-0.37 -0.45,-0.55 2.06,-2.23 2.2,-2.96 6.07,-3.9 1.3,3.56 1.78,3.23 0.56,7.31 -2.1,-0.08 -2.71,-0.24 -4.03,-1.03zm-213.31 -5.2c3.05,-1.77 3.52,0.05 6.49,-3 1.01,-0.98 2.55,-3.95 3.48,-5.12 6.58,6.49 24.92,11.1 26.77,18.37 -6.5,3.37 -4.76,2.04 -12.22,1.29 -9.34,-0.93 -26.14,8.85 -35.18,-0.21 6.6,-5.03 13.15,2.39 10.66,-11.32zm175.8 -4.51c14.47,-3.37 28.17,-6.84 32.6,7.02 -9.23,-0.53 -5.65,-1.65 -10.72,-4.38 -9.27,3.69 -16.01,3.89 -21.87,-2.63zm-358.87 -8.5c6.07,1.54 2.7,2.75 10.55,1.46 6.78,-1.11 5.28,-1.62 10.28,-3.74 0.69,3.84 2.44,6.81 3.05,9.46 -8.26,4.26 -6.06,0.31 -13.22,-1.01 -7.28,-1.33 -5.4,4.06 -13.59,0.79 -0.21,-3.5 1.31,-4.81 2.92,-6.95zm570.23 4.13l-6.7 2.2 -0.85 -4.7 -4.83 -0.91c0.05,-1.87 0.48,-2.63 2.12,-2.15 0.4,0.13 1.14,0.8 1.7,1.13 1.73,1.12 0.13,0.29 2.43,1.39 1.67,-3.95 -0.43,-1.48 2.89,-3.18 2.28,2.09 2.74,1.86 3.24,6.23zm-173.95 -9.06c-2.71,3.28 -2.33,2.33 -6.98,2.1 0.96,-3.85 3.74,-5.67 6.98,-2.1zm187.29 -2.84c3.55,-2.2 4.8,-3.79 8.75,-4.7 -1.52,5.51 -0.29,7.53 -4.48,9.81 -3.45,-1.49 -3.18,-1.73 -4.27,-5.11zm-289.63 -5.31c-1.2,-4.42 -3.28,-15.72 4.7,-12.9 1.85,0.65 8.09,8.33 8.77,10.67 -4.14,2.89 -7.45,3.18 -13.47,2.23zm354.9 -5.06c4.9,-3.79 11.37,-0.13 16.83,-3.36 -0.42,3.36 -11.56,11.35 -16.83,3.36zm-79.84 -5.69c3.53,-3.52 2.34,-0.45 6.78,-5.86 5.24,0.69 8.9,3.02 9.99,6.59 -6.21,0.43 -12.64,1.17 -16.76,-0.72zm-292.64 -9.35c2.44,-0.48 2.56,-0.11 4.74,0.21 -0.43,7.89 -6.28,5.35 -8.09,1.59 0.63,-0.55 0,-1.16 3.35,-1.8zm73.71 -9.91c6.06,-0.96 15.17,-1.62 20.33,-3.63 6.71,-2.62 6.12,-7.5 14.74,-8.51 3.61,7.71 6.58,6.73 13.2,11.11l9.62 13.69c-4.35,3.68 -11.02,6.36 -17.18,2 -3.89,3.55 -2.67,2.96 -8.67,3.95 1.14,6.13 3.17,8.06 5.57,12.67 -4.87,-0.35 -7.18,-1.48 -12.35,0.24l-2.62 -3.79c-5.83,0.45 -8.43,1.99 -14.63,-0.34 -3.56,-1.33 -7.83,-3.66 -9.73,-6.36 9.72,-0.16 10.92,-0.1 19.39,1.99 6.2,-8.37 13.1,-11.11 17.7,-16.03 -4.42,-3.29 -13.83,-3.54 -19.69,-1.86 -9.99,2.83 -11.16,-3 -15.67,-5.14zm-384.38 -5.63c2.17,5.76 5.84,5.59 1.33,11.16 -7.32,0.48 -13.6,-5.28 -16.12,-9.88l10.65 2.31 4.15 -3.59zm699.44 -0.59c-1.4,0.96 0.31,0.4 -2.06,0.93 -4.8,1.09 -20.94,2.63 -25.32,-4l22.56 1.28c4.61,0.32 3.42,-0.53 4.81,1.78zm-415.83 -7.87l7.92 0.43c0.16,3.05 0.29,6.81 -4.98,8.63 -5.14,1.78 -0.63,0.53 -2.94,0.02l0 -9.07zm402.4 -22.39c4.34,1.09 6.76,2.46 4.51,7.07 -1.59,0.69 -8.8,1.83 -10.84,1.4 -3.26,-0.66 -5.81,-3.91 -6.91,-6.86l11.03 2.76 2.2 -4.37zm17.57 -7.21c3.31,1.99 4.94,5.39 6.78,8.22 -4.3,4.9 -14.07,8.69 -16.81,0l10.04 -8.22zm-24.12 -14.79c5,-0.48 4.69,-2.97 10.1,0.24 3,1.8 5.56,3.72 6.82,6.71 -5.56,5.17 -6.17,0.59 -10.69,-1.27 -8,-3.36 -4.03,3.66 -14.07,1.78 -1.46,-2.6 -0.23,-2.91 -2.6,-4.92 -0.98,-0.78 -2.68,-1.07 -4.39,-2.2 4.35,-4.53 1.8,-1.62 5.2,-1.38 6.44,0.46 -0.37,-0.42 5.73,-2.17l3.89 3.2zm29.58 -20.22c4.32,0.69 9.73,0.11 12.4,2.63 -3.74,2.92 -12.81,5.62 -12.4,-2.63z"/>
   <path class="fil2" d="M2173.24 52.42c0,-7.82 6.34,-14.16 14.17,-14.16 7.82,0 14.16,6.34 14.16,14.16l0 1470.37c0,7.82 -6.34,14.17 -14.16,14.17 -7.82,0 -14.17,-6.34 -14.17,-14.17l0 -1470.37z"/>
  </g>
 </g>
</svg>
