<?xml version="1.0" encoding="UTF-8"?>
<!DOCTYPE svg PUBLIC "-//W3C//DTD SVG 1.1//EN" "http://www.w3.org/Graphics/SVG/1.1/DTD/svg11.dtd">
<!-- Creator: CorelDRAW 2021 (64-Bit) -->
<svg xmlns="http://www.w3.org/2000/svg" xml:space="preserve" width="4.10666in" height="4.10666in" version="1.1" style="shape-rendering:geometricPrecision; text-rendering:geometricPrecision; image-rendering:optimizeQuality; fill-rule:evenodd; clip-rule:evenodd"
viewBox="0 0 4106.66 4106.66"
 xmlns:xlink="http://www.w3.org/1999/xlink"
 xmlns:xodm="http://www.corel.com/coreldraw/odm/2003">
 <defs>
  <style type="text/css">
   <![CDATA[
    .fil0 {fill:none}
    .fil1 {fill:#7D5F54}
   ]]>
  </style>
 </defs>
 <g id="Layer_x0020_1">
  <metadata id="CorelCorpID_0Corel-Layer"/>
  <rect class="fil0" x="-0.01" y="-0" width="4106.67" height="4106.67"/>
  <path class="fil1" d="M157.26 2825.29c130.3,-137.99 309.99,-329.66 340.47,-393.56 45.48,-95.25 217.06,-272.31 320.52,-303.27 103.39,-30.93 164.59,-148.52 183.46,-187.72 18.98,-39.21 148.59,-282.63 148.59,-282.63l0 183.61c0,0 53.96,20.61 55.42,92.82 1.42,72.22 -16.04,96.98 0,144.4 16,47.48 0.04,113.46 0.04,113.46l72.77 -148.52c0,0 50.98,204.24 72.87,196 21.82,-8.28 100.48,206.29 107.75,226.9 7.28,20.64 0,-340.37 0,-340.37l-171.89 -259.98 649.7 -1006.69 68.26 87.97 251.91 -179.28 20.54 684.09 85.93 -231.06 24.73 258.9 52.47 -52.57 112.33 415.66 29.93 -253.43 132.52 16.49 95.42 -84.58 84.48 323.85 71.42 -99.99 54.28 253.22 34.22 -115.03 46.96 161.96 65.57 29.89 59.74 214.53 24.77 -243.39 690.11 791.63 -1.28 0.21c-0.73,27.26 20.5,25.87 26.46,39.07 -16,6.37 -19.54,-7.17 -17.28,18.25 -25.39,0.14 -14.06,0.38 -31.93,6.37 -9.07,3.01 -7.62,0.59 -16.31,0.17 -6.75,-0.35 -8.8,1.7 -14.41,3.12 -13.79,-19.09 -20.57,-4.26 -39.63,-3.6 -3.12,-6.72 -9.91,-10.94 -14.3,-16.39 9.52,-3.53 12.85,-0.14 21.41,-6.23 2.98,5.57 3.78,6.2 8.66,10.18 10.25,-6.17 16.14,-5.37 28.92,-10.98 -4.3,-13.93 -23.83,-19.54 -35.26,-28.02l6.69 -10.15 -9.63 -7.72c4.99,-3.26 9.91,-4.64 15.1,-8.52 0.66,-7.38 -2.01,-35.12 -5.82,-40.56 -7.03,2.8 -6.48,4.26 -13.68,5.57 -11.43,2.15 -10.74,17.49 -26.98,29.09 -4.68,-5.13 -8.8,-28.61 0.14,-31.17 16.42,-4.81 25.53,3.88 11.6,-15.52l6.58 -2.77c10.32,-3.81 -1.59,1.28 4.71,-1.35l-4.09 -15.86c-9.73,0.42 -13.96,4.19 -20.3,9.49l-2.74 2.19c-0.28,-0.35 -1,0.8 -1.52,1.07 0.83,-18.11 7.44,-16.8 11.84,-31.45l-3.39 -0.97c-15.1,-4.61 -3.64,-4.95 -13.68,-16.87 -2.35,5.89 -2.49,14.34 -3.15,22.2 -9.84,0.31 -4.02,-0.48 -12.44,-1.49l4.09 16.28 -20.5 2.15c0.24,13.23 8.56,7.93 4.81,27.36l8.28 5.78c-3.57,2.53 -4.09,2.22 -8.38,4.64 1.52,26.77 -9.53,8.59 -25.77,5.99 2.05,17.83 -0.31,17.87 9.39,28.75l-5.93 10.04c0.56,0.38 1.32,0.69 1.73,0.94l43.61 19.74c-24.8,9.52 -23.45,-1.73 -37.79,-2.25 -16,-0.56 -0.69,9.46 -27.95,-7.48 -4.02,2.32 -14.86,9.35 -19.85,13.23 12.54,6.48 19.39,15.44 33.21,22.27 29.48,14.44 20.44,0.14 44.75,2.91 -2.6,4.78 -7.97,9.25 -12.85,11.61 -9.01,4.43 -9.91,1.14 -19.36,-0.28 -13.96,-2.04 -32.7,2.53 -41.18,8.56 2.56,16.18 17.7,14.62 24.49,27.02l-16.28 1.25 -1.63 12.64c-18.74,-2.18 -24.38,8.8 -36.89,-0.24 4.4,-9.45 10.7,2.22 7.41,-19.53l-21.82 -0.17 7.31 -18.98 -17.15 -14.37 -6.06 12.05c-7.13,-0.59 -6.09,-1.07 -10.49,-5.19 0.97,-5.89 4.46,-4.68 5.3,-10.63 0.35,-3.12 -1.46,-7.9 -1.04,-14.2l-25.01 2.43c4.4,-10.11 7.76,-7.2 9.56,-18.91 -6.03,-2.94 -5.26,-1.28 -12.99,-2.04 -3.85,-8 0.35,-8.56 -9.25,-11.91l-2.46 15.55 -12.09 2.46c1.77,12.89 11.95,15.8 -15.17,15.66 3.95,15.48 4.26,24.7 5.06,41.94 -14.72,-0.76 -12.64,-5.44 -27.5,-7.31 2.04,13.65 -0.04,18.11 9.63,24.52l-4.5 10.74c5.72,3.71 10.6,3.71 17.87,7.48 7,3.67 11.43,6.1 15.44,10.7 -13.57,-1.56 -27.33,-4.4 -41.11,-7.07 -18.46,-3.57 -18.88,2.46 -36.99,6.13 7.38,4.06 41.15,23.35 44.47,27.5 -12.78,7.1 -28.82,5.33 -36.23,10.22 1.11,12.12 7.06,11.6 14.03,18.32 -2.46,7.41 -5.26,4.61 -6.44,12.99l-25.21 3.01c-0.17,-8.87 7.86,-26.94 -25.6,-26.67 -2.15,-7.52 -2.56,-8.17 -7.03,-12.47 -13.09,3.88 -38.52,20.71 -47.63,-10.74 14.82,-0.14 36.99,-4.81 50.15,-8.17 3.64,-6.58 4.61,-15.14 8.59,-22.83 3.81,-7.52 8.41,-11.46 10.98,-18.56 -3.08,-4.47 -15.44,-13.16 -19.95,-15.73 -7.59,2.46 -8.52,4.64 -17.67,5.23l-3.53 -13.44c-9.98,7.14 -21.54,8.18 -32.7,1.18 -6.44,-4.02 -16.63,-17.08 -20.68,-18.74 22.72,-2.32 25.18,-0.38 42.05,4.5 3.19,-4.12 6.13,-9.56 8.97,-13.68l32.24 -36.89c-1.21,-1.21 -0.8,-1.15 -3.6,-2.84l-13.85 -3.57c-17.8,-1.49 -5.26,-0.87 -17.39,-5.89l-12.85 11.5c-15.31,-2.32 -27.43,-10.53 -32.63,-23.83 15.1,0.83 12.92,3.11 23.28,5.57l5.33 -13.33 10.49 6.44 31.8 -34.81c-12.64,-12.5 -18.01,-9.8 -34.15,-6.79 -3.98,-6.96 -7.44,-10.15 -15,-13.99 -9.49,3.08 -9.49,7.41 -19.46,10.63 -6.89,-4.05 -15.8,-16.35 -18.01,-24.97l0.04 -2.22c4.22,-1.45 7.06,1.07 11.46,2.6 3.36,-3.39 3.78,-5.33 9.14,-7.2l6.93 10.15c4.88,-1.39 7.96,-3.98 15.52,-6.03 37.82,-10.04 -5.78,-23.87 -9.73,-41.94l-11.46 -4.05c2.39,-11.54 4.88,-5.41 7.72,-16.31 -5.13,-6.06 -7.59,-3.63 -11.57,-10.18 3.08,-5.72 10.94,-7.62 17.35,-11.64 1.39,-21.58 -8.38,-5.96 -1.52,-30.65 3.88,-13.58 0.31,-2.7 -2.84,-13.09 -2.25,-7.14 -0.41,-9.59 -0.93,-16.94 -6.93,6.3 -10.15,5.44 -20.33,9.18 -7.8,17.59 -7.8,32.14 -22.58,42.67 -3.6,-15.13 -5.23,-31.97 -3.19,-48.76 10.57,0.52 11.98,6.17 21.13,-1.8 4.09,-8.45 -4.85,-10.11 -6.48,-20.3 7.17,0.07 8.35,1.42 13.89,-2.32 -0.14,-7.83 -3.88,-6.72 -4.81,-12.61 -0.73,-4.88 2.32,-8.1 3.57,-13.54 -3.98,0.52 -16.28,4.64 -18.57,6.37 -5.68,4.57 -2.46,8.73 -9.42,15.55 -3.01,-3.81 -2.49,-9.14 -1.49,-13.16 3.6,-14.72 11.57,-22.86 12.23,-38.03 -11.71,2.05 -2.39,2.98 -11.92,3.78 -2.11,-9.7 0.07,-16.59 -4.99,-23.17 -4.4,8.04 -3.19,17.18 -4.92,27.95 -3.46,2.46 -1.49,0.66 -5.68,1.32 -0.55,0.07 -2.56,0.24 -3.01,0.31l-3.05 0.45c4.09,21.09 11.12,22.17 8.48,47.73l-6.34 -22.13c-9.52,-0.35 -11.57,5.57 -17.25,-4.47 -3.01,21.41 10.81,15.76 3.26,42.01 5.85,5.57 4.68,2.35 8.69,8.11 -4.71,11.78 1.52,-2.43 -5.82,5.33 -1.66,1.8 -3.19,-4.99 -2.53,6.37 0.28,4.99 5.54,9.46 -0.24,14.83 -7.48,6.93 -11.57,-8.76 -26.98,-11.05 1.67,17.01 10.84,12.71 -0.41,24.8 6.61,6.72 9.94,8.69 13.65,20.81 -5.96,6.62 -7.03,3.81 -9.15,15.24 8.38,1.87 20.13,4.3 25.25,10.94 7.86,10.08 9.77,8.52 20.54,11.12l3.39 1.39c-1.46,6.1 -0.76,6.3 -7.28,8.04 -3.88,1.07 -10.46,0.8 -14.44,-0.04 -6.2,-1.35 -13.58,-5.92 -17.42,-10.04 -18.05,3.46 13.57,-4.78 -4.81,2.18 -10.39,3.98 -14.62,-2.56 -22.96,-10.11 -4.85,2.84 -20.4,13.99 -22.03,18.56 6.3,9.15 7.44,5.96 18.32,9.83l-0.56 13.27 10.87 -3.98c3.57,18.5 4.99,13.82 18.22,11.5l-0.87 10.77c17.39,0.76 20.02,-7.69 36.61,-10.22 -3.57,7.62 -8.21,12.61 -13.09,17.7 -5.33,5.72 -9.73,9.04 -18.84,4.81 -14.52,-6.72 -6.93,-3.22 -22.58,1.11 -7.55,2.04 -15.41,3.08 -22.58,4.98 -0.04,28.09 21.85,28.06 26.25,41.6 -8.14,4.26 -13.75,-0.07 -17.35,5.33 -1.63,2.46 0.83,10.74 0.14,17.11 -9.77,-0.07 -4.64,-0.97 -13.44,-4.22 -5.85,9.59 -9.21,3.88 -18.08,8.21 17.7,29.44 39.04,29.99 48.52,49.43 3.81,7.86 9.35,13.06 11.4,19.74 -14.2,5.93 -19.15,11.29 -36.82,3.71l-15.48 8.41c-4.71,1.87 -1.84,0.45 -4.61,2.25 3.29,15.28 11.39,25.25 22.3,34.46 6.76,5.71 6.65,2.91 9.21,10.8 -15.13,4.85 -24.04,-2.42 -35.26,3.67 -8.38,8.11 22,33.56 28.16,38.06 10.04,-1.21 4.57,-1.73 13.06,-6.13 12.44,19.85 -9.52,28.89 -28.26,33.15 -17.87,4.02 -20.75,22.83 -41.98,21.13 -0.56,-6.58 0.83,-4.5 3.05,-11.54 -7.62,-1.56 -5.5,0.38 -8.56,-5.33 11.6,-4.33 15.14,-2.53 13.72,-14.83 -1.11,-9.18 -1.49,-17.91 -2.84,-26.46 -11.33,3.64 -8.52,4.57 -22.52,3.19 -1.66,11.95 -8.17,21.13 -18.87,25.8 -6.13,-7.62 -7.55,-14.13 -6.34,-26.15l25.28 -0.38 -5.51 -10.29c10.32,-9.21 8.14,-1.46 5.78,-18.22 -15.38,0.63 -19.15,3.98 -24.9,13.54 -1.97,-14.09 7.24,-18.7 9.91,-29.93 -0.45,-0.21 -1.11,-0.24 -1.31,-0.28l-9.8 -1.77c-3.36,-8.97 1.83,-6.58 -6.96,-10.39l-1.67 14.93c-3.57,1.59 -3.08,0.76 -5.81,1.77 -4.78,1.59 -1.21,-0.35 -4.99,2.01l4.09 11.98 -21.41 0.66c3.6,18.12 5.54,21.37 4.26,42.26 -13.47,0.8 -8.31,-1.49 -16.38,-4.61 -9.15,-3.5 -8.28,0.31 -19.22,-2.35 -9,-2.29 -17.18,-10.46 -26.67,-14.09 1.07,-15.93 6.2,-5.58 -6.34,-15.66 5.47,-3.36 10.19,-3.64 16.31,-8l-5.09 -31.62c-33.01,-1.73 -20.96,25.46 -44.16,25.15 -8.97,-27.43 9.21,-17.49 17.07,-27.12 6.13,-8.24 -2.15,-0.14 1.31,-8.45l6.17 -7 -3.29 -9.7c-7.44,-0.2 -9.31,-0.62 -15.27,3.05 -7.03,4.4 -1.98,4.61 -9.8,6.51 0.21,-10.56 6.34,-15.9 11.15,-24.28l-5.09 -4.05c-6.06,-5.2 -4.43,-8.52 -11.15,-12.12 -8.87,-4.85 -18.5,0.38 -25.25,-0.97 -6.72,-1.35 -8.28,-9.98 -19.71,-9.01 -10.63,0.9 -5.96,6.86 -23.66,4.89 -8.14,-9.98 5.85,-7.28 -15.59,-14.96 3.26,-6.17 1.39,-3.63 6.76,-8.07l8.24 5.44 8.69 -6.3c3.57,2.94 6.44,5.96 9.63,9.63 9.35,-6.96 17.39,-5.16 29.34,-13.02 -4.3,-15.24 -23.41,-21.33 -34.95,-32.87 1.63,-8.83 2.74,-4.78 5.99,-12.26 -4.81,-5.54 -6.48,-3.01 -10.01,-10.15 5.23,-3.6 10.91,-6.34 15.83,-9.7l-5.61 -50.6 -14.55 7.24c-13.02,4.85 -11.22,28.75 -28.57,37.58 -1.83,-16.56 -4.71,-24.24 -1.66,-41.67 12.26,0.87 11.81,2.22 21.89,-1.28 -1.28,-12.02 -4.74,-9.25 -8.31,-17.35l14.44 -1.98c-3.15,-11.22 -4.4,-12.4 0.48,-21.96 -29.13,3.91 -16.42,5.19 -28.68,18.39 -4.4,-5.19 -1.66,-13.26 1.21,-19.43 13.68,-28.85 9.42,-18.01 -0.52,-22 -7.62,-3.11 2.04,6.24 -3.05,-2.63 -2.29,-3.98 -0.63,-8.9 -4.09,-12.64 -5.09,7.1 -3.05,12.64 -4.44,22.37l-11.64 -0.42c1.42,12.02 13.72,25.91 7.38,36.37 -4.71,-6.27 -1.87,-12.26 -7.27,-14.86 -4.3,-2.01 -8.42,1.77 -17.15,-1.7 2.22,20.82 10.39,10.7 4.3,35.74 8.04,2.43 5.2,0.11 8.97,5.54 -3.5,4.22 -4.99,3.26 -8.7,6.09 5.44,34.81 -8.41,9.39 -26.35,7.34 1.83,9.77 2.94,18.81 7.03,27.57 7.17,15.38 0.42,8 -3.88,20.09 3.46,3.08 -0.35,1.24 6.65,3.74l13.41 3.7c8.38,4.02 3.15,7.45 13.89,11.19l13.61 3.64c-22.55,13.26 -19.57,6.96 -39.14,-3.54 -5.51,4.26 -5.2,8.45 -14.72,3.46 -5.75,-3.05 -5.37,-4.99 -13.51,-8.38l-4.5 4.26c-5.99,4.54 -11.84,3.81 -15.44,10.39 5.82,8.52 5.96,3.33 13.47,8.04 12.57,7.97 3.88,11.64 23.72,18.98 10.04,3.67 3.67,0.63 10.98,8.14 12.89,-0.11 18.25,-5.44 30.31,-7.24 -2.32,9.77 -4.5,10.6 -12.37,15.52 -11.91,7.48 -6.72,5.2 -17.63,0.83 -7.86,-3.05 -34.46,3.71 -42.98,7.31 -0.69,11.67 2.67,15.17 9.46,20.37 4.99,3.74 12.33,8.45 15.72,14.34l-17.18 7.52c-0.04,0.62 -0.11,1.21 -0.14,1.91l0.66 8.59c-15.14,-2.98 -16.83,0.8 -30.86,3.6 5.51,11.02 17.11,21.61 29.89,26.81 12.92,5.3 9.21,3.84 15.8,13.68 4.05,6.13 7.65,10.32 11.26,17.31 -11.6,6.48 -13.33,8.7 -29.48,5.58 -14.55,-2.84 -1.14,-2.56 -11.98,1.94 -5.54,2.32 -7.93,1.59 -13.44,3.92 0.97,21.3 24.24,28.19 30.24,38.24 -7.76,2.39 -12.3,1.73 -21.65,1.97 -15.45,0.38 -18.39,9.32 -33.08,9.8 -4.99,0.14 -10.18,-2.49 -11.19,-6.65 -0.14,-0.66 -0.69,-0.8 -1.15,-1.11 -21.51,6.76 -40.56,-1.9 -50.6,-15.65 18.29,0.28 25.63,-1.28 41.98,4.4 6.89,-7.03 12.09,-13.65 19.74,-20.5l15.76 -13.75c3.05,-3.05 1.94,-1.67 3.54,-4.85 -8.35,-5.16 -14.79,-2.49 -24.73,-5.57 -15.03,-4.61 -6.72,-2.39 -18.88,3.43 -13.61,6.44 -31.41,-8.76 -35.88,-15.66 35.22,2.43 17.87,0.42 30.58,-3.46 6.44,-1.94 6.69,0.14 11.64,-3.39 5.79,-4.22 3.57,2.04 9.67,-1.25 4.85,-2.53 10.08,-10.74 14.76,-14.69l4.81 -4.22c-13.75,-12.26 -16.25,-6.37 -33.35,-6.44 -19.4,-24.91 -43.4,16.69 -42.29,-16.39l-13.23 -1.87 4.02 -5.3c4.81,1.01 7,3.19 9.94,5.79l7 -8.66c6.17,2.7 5.54,3.33 10.18,8.28 4.89,-1.83 8.69,-3.78 14.48,-5.06 7.97,-1.7 9.25,-1.94 14.72,-4.4 -0.48,-15.65 -21.16,-19.12 -32.45,-26.94 -1.73,-13.3 2.18,-5.02 3.36,-16.39 -6.2,-4.81 -5.33,-1.28 -8.21,-8.14 9.49,-5.61 11.43,-4.26 17.28,-14.24 -3.08,-7.17 -3.36,-2.7 -6.82,-10.22 2.43,-4.16 3.81,-5.96 5.72,-10.15 -3.57,-5.13 -9.04,-10.84 -3.91,-19.36 -11.15,2.46 -8.24,5.96 -23.31,3.98 -1.77,15.03 -9.63,29.09 -21.44,34.29 -3.77,-14.76 -5.02,-17.84 -3.67,-35.71l25.94 0.9 -7.13 -14.65c4.68,-4.99 2.77,-1.97 9.11,-6.06l-2.25 -18.18c-24.07,2.43 -14.03,3.43 -25.46,15.52 -4.19,-18.11 7.1,-20.47 11.12,-36.06 -7.28,-3.95 -9.63,3.78 -12.96,-4.74 -3.32,-8.8 3.36,-7.52 -6.44,-13.68l-4.02 24.35 -9.11 -2.87c-0.62,14.24 14.03,24.31 6.65,35.3l-5.72 -14.72 -19.22 0.72c2.87,8.7 4.71,19.71 8.17,28.92 2.98,8.11 3.81,3.81 0.9,14.13 -1.39,4.95 -3.22,8.83 -4.5,13.89 -13.23,-1.8 -10.5,-7.72 -25.15,-10.36 1.91,16.97 2.77,21.54 10.04,32.87 -3.01,8.94 -5.75,4.33 -6.17,13.61 9.94,5.27 15.76,0.56 24.28,7.62 14.31,11.81 3.57,3.67 20.92,8.94 -3.78,16.69 -24.69,5.19 -32.8,2.07 -16.66,-6.48 -3.15,3.12 -18.84,-0.03 -4.57,-1.01 -10.25,-6.06 -13.85,-7.93l-21.58 12.4c7.59,7.1 27.81,19.88 37.79,25.6 22.55,12.92 23.35,1.45 46.38,-0.76 -7.41,8.9 -17.49,23.52 -34.98,16.38 -11.74,-4.85 -9.39,-0.14 -23.04,2.11 -8.76,1.46 -13.3,0.76 -20.74,5.54 1.97,16.35 16.8,17.39 25.07,28.5 -7.24,4.36 -5.92,1.14 -14.1,3.22 -3.98,7.13 -1.66,5.3 -2.04,14.34 -16.38,-3.67 -15.44,0.52 -28.78,3.46 2.91,6.86 0.52,2.25 3.98,7l9.84 9.11c13.99,10.98 35.3,15.76 40.91,36.16 -17.49,12.19 -35.16,1.73 -53.13,10.15 -1.45,11.71 10.01,14.27 -0.55,18.11 -8.56,3.08 -13.79,-2.63 -26.05,2.15 -10.43,4.05 -28.75,1.49 -32.66,-12.96 26.43,2.63 49.63,-5.75 67.96,-23.62 -17.49,-6.02 -6.27,-6.2 -29.17,-5.4 -6.75,0.24 -16.17,-6.89 -21.27,-10.35 -7.65,5.26 -6.93,7.89 -21.37,7.89 -5.78,-5.5 -11.64,-9.45 -15.41,-14.51 13.19,-4.81 22.75,-4.02 32.69,3.78l4.37 -3.81c5.02,-2.88 14.06,-3.36 19.74,-5.44 -0.55,-10.08 1.94,-4.22 -5.37,-10.08 -8.14,-6.72 -18.94,-10.87 -27.33,-17.04 2.25,-7.45 2.35,-2.11 4.71,-10.67l-9.21 -5.57c4.4,-3.43 13.2,-7.48 17.39,-10.15 -1.39,-7.2 -3.39,-8.21 -3.81,-16.35 -0.52,-8.73 1.31,-11.12 -1.84,-18.91 -1.21,-0.31 -1.21,-0.45 -4.3,-0.14l-9.83 2.43c-8.52,2.74 -5.78,0.1 -10.43,8.63 -5.2,9.76 -6.48,14.96 -17.32,17.94 -0.9,-0.69 -1.91,-1.28 -3.01,-1.77 -2.01,-7.86 -2.5,-16.83 -1.39,-26.11 17.39,-0.04 24.73,2.7 18.15,-12.57 10.35,-8.42 7.58,-6.58 6.54,-20.43 -13.78,2.08 -17.07,3.22 -24.73,10.84 -0.31,-17.42 7.65,-15.03 9.04,-29.09 -8.87,-3.32 -5.89,3.33 -8.87,-1.42l0.62 -1.28 -2.46 -1.66 -0.04 -0.07c-4.12,-6.82 2.32,-6.58 -7.76,-9.42l-0.35 4.16c-3.39,-2.46 -6.27,-5.13 -8.52,-8.9l-17.77 5.02 -6.48 -12.4c-16.21,3.95 -14.17,11.71 -33.63,-1.49 -7.97,-5.4 -17.32,-13.65 -21.93,-20.64 20.23,0.48 28.54,0.69 44.65,7 5.61,-5.37 13.65,-20.12 19.85,-27.78 7.83,-9.66 17.25,-17.31 22.65,-27.78 -9.35,-1.42 -10.25,-3.88 -20.26,-4.02 -17.39,-0.14 -2.7,-2.32 -15.69,-4.67 -10.04,7.76 -13.68,14.23 -28.95,4.33 -9.94,-6.41 -13.79,-11.36 -18.91,-23.83l24 9.18 6.48 -10.46c10.22,0.76 3.43,1.11 13.06,4.71 0.24,-0.49 0.41,-1.28 0.59,-1.73 5.82,-13.09 2.98,-1.07 15.24,-16.73 5.85,-7.52 12.4,-10.67 14.65,-19.64 -7.72,-4.71 -10.05,-4.5 -17.46,-10.74l-15.24 4.99c-6.69,-7.34 -7.65,-12.09 -19.46,-14.58 -5.13,2.98 -16.11,17.22 -22.69,7.8 -6.03,-8.59 2.91,-7.41 -4.54,-14.24 -1.87,-1.7 -7,-2.18 -11.12,-5.06 5.47,-12.05 10.04,-3.67 14.44,-2.32 5.96,-5.33 3.05,-6.41 9.39,-9.83l7.1 12.78c10.7,-2.46 -0.1,0.69 8.35,-3.88 12.78,-6.85 18.01,-3.91 21.48,-10.25 9.24,-16.76 -20.54,-13.85 -23.21,-39.14l-11.57 1.52c-0.07,-15.17 5.51,-9.56 8,-20.16 -5.06,-5.71 -7.69,-5.06 -11.67,-10.67l-13.89 -12.23c-6.65,-6.03 -5.85,-9.49 -14.34,-11.6 -3.22,2.22 -1,0.59 -5.61,2.63l0.63 -52.89c9.31,1.91 9.11,3.26 19.95,0.24 4.71,-12.64 -3.05,-13.23 -7.65,-23.38l17.46 -2.11c-3.57,-12.67 -12.89,-13.3 -1.77,-26.35 -9.07,0.35 -4.68,0.2 -11.02,2.32l-7.76 2.91c-0.28,-0.42 -1.11,0.38 -2.25,0.38l-7.59 16.11c-2.39,-2.7 -0.66,1.31 -1.91,-4.09l0.35 -10.8c2.5,-12.68 11.26,-23.45 12.96,-40.39 -9.94,2.56 -4.85,3.98 -12.5,3.91l-5.3 -25.56 -3.15 36.41c-9.77,-0.52 -2.39,-1.98 -13.26,-5.82 0.45,15.86 8.97,27.54 10.08,37.02 0.41,4.19 0.45,3.43 -0.42,7.45 -0.93,4.15 -0.59,2.53 -2.6,4.74l-3.98 -18.98c-12.85,0.07 -9.15,1.04 -20.19,-2.91 1.28,10.94 3.39,14.06 5.82,23.17 2.87,10.94 -0.14,11.64 -0.69,21.48 6.23,2.67 6.13,1.14 9.59,7.58 -3.46,6.44 -4.57,1.67 -10.98,6.1 0.76,5.82 2.6,7.2 3.22,10.91 4.02,24.07 -23.03,-0.97 -26.91,-2.11 -2.22,10.63 0.66,7.86 1.25,15.9 0.59,8.83 -1.35,5.99 -2.77,14.34 23.73,12.44 4.47,22.72 3.08,32.25 9.87,6.48 11.64,5.2 23.62,7.65 0.56,0.38 4.02,13.68 15.72,15.62 3.78,0.66 3.46,0.04 7.65,-1.25 13.37,-2.94 19.5,0.59 24.31,-9.83 -5.3,-12.85 -8.42,-1.01 -10.81,-18.29 12.13,0.52 5.41,-0.38 9.32,2.74 8.94,7 0.17,-1.21 1.56,5.19 2.77,12.54 11.7,8 -7.9,25.49 -43.43,38.86 -36.13,44.89 -61.44,19.36 -9.21,-9.32 -9.45,-6.03 -12.22,-22.1 -1.98,-5.82 -1.46,-3.84 -7.41,-8.42 -1.87,0.8 -19.39,14.27 -21.41,16.42 2.22,10.88 6.58,10.22 17.63,12.02l-1 14.79c12.33,-1.42 11.43,-5.2 15.97,12.54l10.49 -4.61 3.64 8.76c0.1,-0.28 0.35,1.04 0.69,1.56 14.69,0.21 27.22,-8 37.89,-13.37 -1.45,6.41 -21.09,30.79 -30.79,29.23 -12.96,-2.15 -2.5,-8.73 -22,-1.77 -9,3.26 -17.39,1.56 -26.29,5.79 -9.52,16.45 19.46,35.6 25.42,46.65l-19.29 0.73 -0.24 21.33c-8.04,-1.42 -2.91,-1.73 -10.25,-4.61 -7.86,6.23 -9.59,9.7 -18.81,0.59l-15.2 -11.6c3.22,-8.9 4.06,-2.6 6.62,-12.92 -6.51,-2.63 -7.17,-2.25 -10.6,-7.41 9.66,-5.65 7.72,-0.9 16.1,-10.18l-4.09 -44.93c-9.39,3.26 -6.75,5.78 -20.95,6.86 -4.4,14.89 -10.6,27.54 -22.37,32.52 -4.26,-9.35 -4.33,-23.69 -3.98,-35.22 11.88,-0.42 12.26,1.56 22.76,-2.6 -0.48,-8.45 -2.63,-7.1 -5.99,-13.68 7.38,-4.05 11.53,-1.31 11.53,-7.41 0,-5.85 -5.65,-2.74 -0.83,-14.79 -24.87,-1.18 -16.83,8.8 -27.85,15.65 -5.68,-11.05 8.83,-24.56 10.84,-36.19l-11.02 -1.7 -4.36 -16.28c-5.82,5.96 -3.46,12.33 -4.99,22.06 -7.31,4.57 0.1,0.17 -4.99,1.07 -0.52,0.1 -2.56,0.38 -2.94,0.41l0.63 17.84 -21.23 -0.14c0.48,13.44 10.77,16.9 3.57,30.52l8.59 4.67 -6.55 4.64c0.21,36.65 -8.24,10.08 -27.57,8.59 1.83,8.9 1.04,16 5.68,24.21 3.6,6.51 5.68,3.85 3.67,11.12 -1.8,6.55 -2.25,0.04 -5.57,9.04 9.8,5.44 35.3,15.38 44.23,23.07 -27.67,8.24 -23.59,-3.67 -35.88,-3.57 -8.17,0.07 -4.47,6.48 -15.9,-0.07 -4.4,-2.5 -8.52,-6.17 -11.98,-8.59 -3.6,3.26 -16.9,10.25 -19.19,15.65 10.6,14.1 16.21,-2.74 15.9,17.35 24.94,-2.46 12.81,9.35 31.8,13.06 11.6,2.25 22.51,-5.89 34.67,-8.31 -21.58,35.74 -37.51,8.11 -77.96,24.66 0,18.88 18.11,20.99 24.94,30 -6.44,2.67 -12.61,0.93 -16.35,4.81 -3.5,3.57 -0.14,6.03 -1.15,13.44 -18.01,-0.17 2.94,-7.41 -26.29,3.5l-2.74 1.21c12.22,12.64 15.03,16.94 30.86,23.45 9.67,3.95 21.06,17.98 24.56,26.95 -19.05,8.41 -28.57,4.95 -51.68,7.03l-4.36 -9.07c-15.62,6.75 -16.49,1.39 -23.31,15.34 -4.64,9.56 -7.48,14.09 -18.25,17.91 -2.32,-6.23 -5.09,-15.13 -4.43,-22.41 1.38,-13.47 14.34,-3.5 21.92,-10.77 5.82,-5.61 -0.69,-5.4 -4.36,-12.5l11.08 -3.32 -4.33 -15.14c-17.77,2.11 -14.72,5.37 -23.31,14.58 -2.77,-19.02 9.21,-18.67 10.46,-35.71l-12.09 1 -3.19 -13.06c-6.89,5.44 -3.57,8.76 -6.89,17.77l-8.52 2.04c1.11,13.16 7.27,11.67 7.55,27.12l-7.14 -11.12 -21.51 0.66c5.85,9.42 7.9,24.45 14.96,30.44 -9.21,6.69 -2.98,7.38 -8.8,18.08 -14.34,1.28 -8.21,-4.61 -24.52,-7.06 0.72,14.09 3.05,19.74 9.25,27.39 -2.39,8.38 -3.85,3.88 -5.61,12.19 13.61,5.06 29.37,9.98 41.15,18.88 -16.63,3.7 -29.2,0.38 -45.17,-3.67 -20.26,-5.23 -19.22,-4.5 -35.61,5.2 5.92,5.33 24.52,19.91 32.21,22.3 9.97,3.12 12.02,7.14 21.68,6.93 7.2,-0.14 11.64,-4.33 22.79,-5.4 -2.56,7.41 -6.2,10.22 -13.72,13.37 -13.33,5.47 -11.36,-0.52 -20.57,-2.01 -3.91,-0.62 -35.61,6.13 -40.04,7.76 5.37,17.63 16.42,14.55 24.83,27.19l-14.86 1.83 0.14 13.3c-12.16,-3.19 -18.22,-1.91 -27.71,4.3 8.07,18.19 46.93,20.4 51.37,44.26 -14.55,8 -18.91,3.67 -36.23,5.02 -22.9,1.73 -14.83,7.38 -13.51,16.21 -12.5,6.34 -16.63,10.43 -27.61,-0.31 3.5,-11.5 0.21,-0.07 5.54,-6.41 5.5,-6.51 8.87,-18.15 9.07,-26.43 -13.37,0.04 -30.07,3.64 -43.16,-1.8 -8.48,-3.5 -4.19,-0.59 -5.89,-5.96 8.69,-5.37 10.91,-0.9 23.41,-2.87l-0.66 -19.54c14.48,-3.15 29.44,-16.69 31.52,-30.69 -6.96,-10.43 -9.94,-13.47 -26.6,-12.78l-8.07 -11.29c-16.56,4.05 -37.65,18.63 -46.69,-10.88 22.27,0.83 29.3,-5.96 49.53,-6.55 2.77,-7.62 5.51,-16.31 8.83,-22.24 4.06,-7.17 9.42,-10.35 11.02,-17.59 -18.7,-18.77 -22.31,-8.56 -36.85,-9.25l-5.96 -10.84c-26.04,7.24 -40.56,-3.46 -49.7,-18.84 16.8,-0.45 28.09,-0.94 40.49,5.4 3.98,-4.12 6.17,-8.83 9.11,-13.51 7.55,-11.64 24.24,-22.48 30.31,-34.5 -6.27,-4.68 -8.56,-5.72 -17.01,-5.57 -11.67,0.24 -6.48,-1.32 -15.27,-5.27 -10.08,6.03 -13.85,13.13 -29.44,5.75 -8.49,-4.02 -14.72,-9.94 -18.39,-19.54l23.9 4.95c5.33,-5.02 3.12,-2.43 5.85,-9.25 8.8,2.35 3.57,1.7 11.46,5.2l3.91 -5.2c6.89,-7.62 23.35,-18.11 28.71,-26.08 -15.62,-13.06 -14.96,-9.18 -35.5,-8 -20.23,-28.33 -27.88,6.96 -39.97,-6.13 -4.89,-5.3 0.8,-6.09 -5.13,-12.02 -4.09,-4.02 -3.78,-0.52 -10.32,-4.37 4.12,-11.7 7.72,-4.71 15,-2.18 9.11,-6.41 -1.18,-4.74 8.87,-7.8l6.51 9.7c5.37,-0.94 11.64,-4.4 18.43,-6.65 8.45,-2.81 9.18,-4.26 12.95,-9.39 -5.2,-6.89 -8.52,-11.26 -16.49,-18.25 -6.82,-6.06 -15.62,-8.42 -21.85,-14.41l9.28 -14.17c-5.3,-7.31 -6.06,-2.6 -11.43,-10.15 1.87,-2.22 0.41,-0.87 3.5,-2.98 0.59,-0.45 15.72,-6.93 16.04,-15.38 0.38,-10.08 -11.98,3.74 -0.28,-28.71l-7.69 -5.99 3.05 -15.14c-13.99,3.05 -3.98,2.22 -11.88,5.72 -7.93,3.39 -3.05,-0.59 -9.01,1.35 -8.73,16.28 -8.83,32.31 -23.9,40.73 -5.54,-17.15 -5.89,-23.83 -3.12,-43.5 9.84,-0.8 9.7,2.94 20.54,-0.93 2.84,-9.28 -2.25,-9.91 -4.95,-19.4l13.13 -3.32c-2.35,-9.04 -5.4,-11.81 -3.6,-24.18 -25.11,4.88 -15.03,2.67 -25.31,21.58 -4.3,-24.18 9.73,-30.55 11.46,-49.94 -10.08,0.24 -2.11,1.04 -12.44,4.26 -2.32,-10.91 -0.8,-13.85 -6.2,-23.14l-2.04 4.61c-2.18,7.9 -1.14,16.76 -1.97,24.87 -8.38,1.8 -2.98,0 -12.33,-3.46 2.39,18.11 14.41,28.19 10.7,46.69 -5.68,-5.68 -6.09,-12.4 -7.76,-21.58 -6.44,2.29 -9.87,2.43 -18.19,1 0.9,16.45 7.07,18.08 4.71,35.57 6.02,5.72 6.75,2.7 9.11,11.12l-10.39 3.12c0.35,9.94 3.78,8.42 1.04,19.54 -17.04,2.35 -10.53,-10.11 -26.94,-11.08 -0.07,9 1.66,5.89 2.56,13.02 1.45,10.56 -2.19,4.95 -1.25,10.6 0.66,4.15 7.65,7.52 10.6,18.87 -5.16,6.2 -6.41,3.67 -7.86,12.19 8.28,8.35 15.31,2.87 24.76,11.15 13.41,11.74 18.77,11.26 21.2,15.86 -8.21,3.29 -15.69,6.37 -26.57,1.35 -18.6,-8.42 -2.74,-6.44 -23.9,-3.22 -8.69,-4.61 -6.41,-6.48 -15.2,-10.94 -2.8,1.8 -0.73,0.42 -3.46,2.91l-18.04 11.39c4.26,10.94 5.92,7.76 17.21,12.37 4.4,10.35 2.67,6.51 10.88,14.17 7.79,7.24 1.52,10.91 15.13,6.3 5.06,6.1 5.96,10.7 17.94,6.72 8,-2.63 10.22,-5.47 20.13,-6.44 -4.68,10.94 -13.93,19.46 -25.74,23.69 -4.92,-4.54 -7.86,-5.96 -14.51,-8.31l-17.07 6.65c-6.03,1.25 -12.5,2.77 -18.29,3.7 -0.73,27.26 20.54,25.87 26.46,39.07 -16,6.37 -19.5,-7.17 -17.25,18.25 -25.39,0.14 -14.06,0.38 -31.97,6.37 -9.07,3.01 -7.59,0.59 -16.28,0.17 -6.76,-0.35 -8.8,1.7 -14.44,3.12 -13.78,-19.09 -20.57,-4.26 -39.59,-3.6 -3.15,-6.72 -9.91,-10.94 -14.3,-16.39 9.49,-3.53 12.81,-0.14 21.37,-6.23 2.98,5.57 3.81,6.2 8.66,10.18 10.25,-6.17 16.14,-5.37 28.92,-10.98 -4.26,-13.93 -23.8,-19.54 -35.26,-28.02l6.72 -10.15 -9.63 -7.72c4.95,-3.26 9.87,-4.64 15.1,-8.52 0.62,-7.38 -2.01,-35.12 -5.85,-40.56 -7,2.8 -6.48,4.26 -13.65,5.57 -11.46,2.15 -10.74,17.49 -27.02,29.09 -4.68,-5.13 -8.76,-28.61 0.14,-31.17 16.42,-4.81 25.53,3.88 11.64,-15.52l6.58 -2.77c10.29,-3.81 -1.59,1.28 4.68,-1.35l-4.09 -15.86c-9.7,0.42 -13.96,4.19 -20.26,9.49l-2.77 2.19c-0.28,-0.35 -1.01,0.8 -1.49,1.07 0.8,-18.11 7.41,-16.8 11.85,-31.45l-3.43 -0.97c-15.07,-4.61 -3.64,-4.95 -13.68,-16.87 -2.35,5.89 -2.46,14.34 -3.15,22.2 -9.84,0.31 -4.02,-0.48 -12.4,-1.49l4.05 16.28 -20.5 2.15c0.28,13.23 8.59,7.93 4.85,27.36l8.24 5.78c-3.54,2.53 -4.09,2.22 -8.38,4.64 1.56,26.77 -9.49,8.59 -25.74,5.99 2.04,17.83 -0.31,17.87 9.35,28.75l-5.89 10.04c0.52,0.38 1.31,0.69 1.73,0.94l43.57 19.74c-24.8,9.52 -23.41,-1.73 -37.75,-2.25 -16,-0.56 -0.73,9.46 -27.99,-7.48 -4.02,2.32 -14.86,9.35 -19.85,13.23 12.57,6.48 19.4,15.44 33.25,22.27 29.44,14.44 20.4,0.14 44.72,2.91 -2.6,4.78 -7.93,9.25 -12.81,11.61 -9.04,4.43 -9.94,1.14 -19.36,-0.28 -13.96,-2.04 -32.7,2.53 -41.22,8.56 2.56,16.18 17.7,14.62 24.49,27.02l-16.28 1.25 -1.59 12.64c-18.74,-2.18 -24.42,8.8 -36.92,-0.24 4.4,-9.45 10.7,2.22 7.44,-19.53l-21.85 -0.17 7.34 -18.98 -17.18 -14.37 -6.06 12.05c-7.1,-0.59 -6.09,-1.07 -10.49,-5.19 1,-5.89 4.5,-4.68 5.3,-10.63 0.34,-3.12 -1.42,-7.9 -1.04,-14.2l-24.97 2.43c4.4,-10.11 7.72,-7.2 9.56,-18.91 -6.06,-2.94 -5.3,-1.28 -13.02,-2.04 -3.85,-8 0.35,-8.56 -9.25,-11.91l-2.43 15.55 -12.09 2.46c1.73,12.89 11.95,15.8 -15.17,15.66 3.94,15.48 4.22,24.7 5.06,41.94 -14.76,-0.76 -12.68,-5.44 -27.54,-7.31 2.04,13.65 0,18.11 9.63,24.52l-4.5 10.74c5.75,3.71 10.63,3.71 17.87,7.48 7,3.67 11.46,6.1 15.45,10.7 -13.57,-1.56 -27.29,-4.4 -41.11,-7.07 -18.43,-3.57 -18.88,2.46 -36.99,6.13 7.38,4.06 41.18,23.35 44.51,27.5 -12.81,7.1 -28.85,5.33 -36.23,10.22 1.07,12.12 7.03,11.6 14.03,18.32 -2.49,7.41 -5.3,4.61 -6.44,12.99l-25.21 3.01c-0.21,-8.87 7.83,-26.94 -25.63,-26.67 -2.11,-7.52 -2.53,-8.17 -7.03,-12.47 -13.09,3.88 -38.48,20.71 -47.63,-10.74 14.82,-0.14 36.99,-4.81 50.19,-8.17 3.6,-6.58 4.61,-15.14 8.55,-22.83 3.81,-7.52 8.42,-11.46 11.02,-18.56 -3.12,-4.47 -15.45,-13.16 -19.98,-15.73 -7.55,2.46 -8.52,4.64 -17.63,5.23l-3.53 -13.44c-10.01,7.14 -21.54,8.18 -32.7,1.18 -6.48,-4.02 -16.66,-17.08 -20.68,-18.74 22.72,-2.32 25.15,-0.38 42.05,4.5 3.19,-4.12 6.09,-9.56 8.97,-13.68l32.21 -36.89c-1.21,-1.21 -0.8,-1.15 -3.57,-2.84l-13.89 -3.57c-17.8,-1.49 -5.26,-0.87 -17.39,-5.89l-12.81 11.5c-15.34,-2.32 -27.47,-10.53 -32.66,-23.83 15.1,0.83 12.92,3.11 23.28,5.57l5.33 -13.33 10.53 6.44 31.8 -34.81c-12.68,-12.5 -18.04,-9.8 -34.15,-6.79 -4.02,-6.96 -7.48,-10.15 -15.03,-13.99 -9.49,3.08 -9.49,7.41 -19.43,10.63 -6.93,-4.05 -15.83,-16.35 -18.01,-24.97l0.03 -2.22c4.23,-1.45 7.07,1.07 11.43,2.6 3.4,-3.39 3.81,-5.33 9.15,-7.2l6.93 10.15c4.92,-1.39 7.96,-3.98 15.52,-6.03 37.82,-10.04 -5.78,-23.87 -9.73,-41.94l-11.43 -4.05c2.39,-11.54 4.85,-5.41 7.69,-16.31 -5.09,-6.06 -7.59,-3.63 -11.57,-10.18 3.08,-5.72 10.94,-7.62 17.35,-11.64 1.39,-21.58 -8.38,-5.96 -1.49,-30.65 3.85,-13.58 0.31,-2.7 -2.87,-13.09 -2.25,-7.14 -0.38,-9.59 -0.93,-16.94 -6.93,6.3 -10.15,5.44 -20.3,9.18 -7.83,17.59 -7.83,32.14 -22.61,42.67 -3.6,-15.13 -5.2,-31.97 -3.15,-48.76 10.56,0.52 11.98,6.17 21.09,-1.8 4.12,-8.45 -4.85,-10.11 -6.44,-20.3 7.14,0.07 8.35,1.42 13.85,-2.32 -0.14,-7.83 -3.88,-6.72 -4.78,-12.61 -0.72,-4.88 2.29,-8.1 3.54,-13.54 -3.95,0.52 -16.24,4.64 -18.57,6.37 -5.68,4.57 -2.46,8.73 -9.42,15.55 -3.01,-3.81 -2.46,-9.14 -1.49,-13.16 3.64,-14.72 11.57,-22.86 12.23,-38.03 -11.71,2.05 -2.39,2.98 -11.92,3.78 -2.11,-9.7 0.07,-16.59 -4.99,-23.17 -4.4,8.04 -3.19,17.18 -4.92,27.95 -3.46,2.46 -1.45,0.66 -5.68,1.32 -0.52,0.07 -2.53,0.24 -2.98,0.31l-3.05 0.45c4.09,21.09 11.08,22.17 8.45,47.73l-6.34 -22.13c-9.49,-0.35 -11.53,5.57 -17.21,-4.47 -3.01,21.41 10.77,15.76 3.22,42.01 5.85,5.57 4.68,2.35 8.69,8.11 -4.71,11.78 1.52,-2.43 -5.82,5.33 -1.66,1.8 -3.19,-4.99 -2.53,6.37 0.28,4.99 5.57,9.46 -0.24,14.83 -7.44,6.93 -11.53,-8.76 -26.98,-11.05 1.66,17.01 10.88,12.71 -0.41,24.8 6.61,6.72 9.94,8.69 13.68,20.81 -5.96,6.62 -7.07,3.81 -9.18,15.24 8.42,1.87 20.13,4.3 25.28,10.94 7.87,10.08 9.77,8.52 20.51,11.12l3.43 1.39c-1.46,6.1 -0.8,6.3 -7.28,8.04 -3.91,1.07 -10.5,0.8 -14.48,-0.04 -6.17,-1.35 -13.54,-5.92 -17.42,-10.04 -18.01,3.46 13.57,-4.78 -4.78,2.18 -10.39,3.98 -14.65,-2.56 -23,-10.11 -4.85,2.84 -20.37,13.99 -22.03,18.56 6.3,9.15 7.44,5.96 18.32,9.83l-0.52 13.27 10.84 -3.98c3.6,18.5 4.99,13.82 18.26,11.5l-0.9 10.77c17.39,0.76 20.02,-7.69 36.65,-10.22 -3.6,7.62 -8.21,12.61 -13.09,17.7 -5.37,5.72 -9.73,9.04 -18.84,4.81 -14.51,-6.72 -6.93,-3.22 -22.61,1.11 -7.55,2.04 -15.41,3.08 -22.58,4.98 0,28.09 21.89,28.06 26.29,41.6 -8.17,4.26 -13.78,-0.07 -17.39,5.33 -1.63,2.46 0.87,10.74 0.14,17.11 -9.73,-0.07 -4.64,-0.97 -13.44,-4.22 -5.85,9.59 -9.21,3.88 -18.08,8.21 17.73,29.44 39.04,29.99 48.56,49.43 3.81,7.86 9.35,13.06 11.39,19.74 -14.23,5.93 -19.19,11.29 -36.85,3.71l-15.45 8.41c-4.71,1.87 -1.87,0.45 -4.61,2.25 3.26,15.28 11.4,25.25 22.27,34.46 6.76,5.71 6.65,2.91 9.25,10.8 -15.17,4.85 -24.07,-2.42 -35.26,3.67 -8.38,8.11 21.96,33.56 28.13,38.06 10.04,-1.21 4.57,-1.73 13.06,-6.13 12.44,19.85 -9.52,28.89 -28.26,33.15 -17.87,4.02 -20.75,22.83 -41.98,21.13 -0.52,-6.58 0.87,-4.5 3.08,-11.54 -7.65,-1.56 -5.51,0.38 -8.59,-5.33 11.6,-4.33 15.14,-2.53 13.72,-14.83 -1.07,-9.18 -1.49,-17.91 -2.81,-26.46 -11.32,3.64 -8.56,4.57 -22.55,3.19 -1.66,11.95 -8.17,21.13 -18.84,25.8 -6.13,-7.62 -7.55,-14.13 -6.33,-26.15l25.25 -0.38 -5.51 -10.29c10.36,-9.21 8.17,-1.46 5.82,-18.22 -15.41,0.63 -19.19,3.98 -24.94,13.54 -1.98,-14.09 7.27,-18.7 9.91,-29.93 -0.42,-0.21 -1.11,-0.24 -1.31,-0.28l-9.77 -1.77c-3.39,-8.97 1.8,-6.58 -6.96,-10.39l-1.7 14.93c-3.57,1.59 -3.05,0.76 -5.82,1.77 -4.74,1.59 -1.18,-0.35 -4.95,2.01l4.06 11.98 -21.37 0.66c3.57,18.12 5.54,21.37 4.22,42.26 -13.47,0.8 -8.28,-1.49 -16.38,-4.61 -9.11,-3.5 -8.28,0.31 -19.19,-2.35 -9.04,-2.29 -17.18,-10.46 -26.7,-14.09 1.07,-15.93 6.2,-5.58 -6.34,-15.66 5.51,-3.36 10.22,-3.64 16.31,-8l-5.09 -31.62c-32.98,-1.73 -20.96,25.46 -44.13,25.15 -8.97,-27.43 9.18,-17.49 17.04,-27.12 6.13,-8.24 -2.15,-0.14 1.31,-8.45l6.2 -7 -3.29 -9.7c-7.48,-0.2 -9.31,-0.62 -15.28,3.05 -7.06,4.4 -2.01,4.61 -9.8,6.51 0.21,-10.56 6.34,-15.9 11.12,-24.28l-5.09 -4.05c-6.03,-5.2 -4.44,-8.52 -11.15,-12.12 -8.87,-4.85 -18.46,0.38 -25.25,-0.97 -6.72,-1.35 -8.28,-9.98 -19.67,-9.01 -10.67,0.9 -5.99,6.86 -23.65,4.89 -8.14,-9.98 5.85,-7.28 -15.62,-14.96 3.26,-6.17 1.39,-3.63 6.76,-8.07l8.28 5.44 8.66 -6.3c3.6,2.94 6.44,5.96 9.63,9.63 9.39,-6.96 17.39,-5.16 29.34,-13.02 -4.3,-15.24 -23.38,-21.33 -34.95,-32.87 1.66,-8.83 2.74,-4.78 6.03,-12.26 -4.85,-5.54 -6.48,-3.01 -10.04,-10.15 5.23,-3.6 10.91,-6.34 15.86,-9.7l-5.61 -50.6 -14.55 7.24c-13.02,4.85 -11.26,28.75 -28.61,37.58 -1.8,-16.56 -4.71,-24.24 -1.66,-41.67 12.26,0.87 11.81,2.22 21.89,-1.28 -1.25,-12.02 -4.71,-9.25 -8.28,-17.35l14.44 -1.98c-3.15,-11.22 -4.4,-12.4 0.48,-21.96 -29.13,3.91 -16.45,5.19 -28.68,18.39 -4.4,-5.19 -1.67,-13.26 1.18,-19.43 13.68,-28.85 9.42,-18.01 -0.49,-22 -7.65,-3.11 2.05,6.24 -3.08,-2.63 -2.28,-3.98 -0.62,-8.9 -4.09,-12.64 -5.09,7.1 -3.05,12.64 -4.43,22.37l-11.6 -0.42c1.42,12.02 13.72,25.91 7.34,36.37 -4.67,-6.27 -1.83,-12.26 -7.27,-14.86 -4.26,-2.01 -8.38,1.77 -17.15,-1.7 2.22,20.82 10.39,10.7 4.3,35.74 8.04,2.43 5.23,0.11 9,5.54 -3.53,4.22 -4.99,3.26 -8.73,6.09 5.47,34.81 -8.38,9.39 -26.36,7.34 1.84,9.77 2.98,18.81 7.07,27.57 7.13,15.38 0.38,8 -3.91,20.09 3.46,3.08 -0.31,1.24 6.65,3.74l13.41 3.7c8.38,4.02 3.15,7.45 13.89,11.19l13.61 3.64c-22.51,13.26 -19.54,6.96 -39.14,-3.54 -5.51,4.26 -5.16,8.45 -14.72,3.46 -5.75,-3.05 -5.33,-4.99 -13.51,-8.38l-4.5 4.26c-5.96,4.54 -11.85,3.81 -15.41,10.39 5.78,8.52 5.93,3.33 13.44,8.04 12.61,7.97 3.91,11.64 23.76,18.98 10.04,3.67 3.63,0.63 10.94,8.14 12.88,-0.11 18.25,-5.44 30.34,-7.24 -2.35,9.77 -4.54,10.6 -12.4,15.52 -11.88,7.48 -6.69,5.2 -17.63,0.83 -7.86,-3.05 -34.46,3.71 -42.98,7.31 -0.69,11.67 2.67,15.17 9.46,20.37 4.99,3.74 12.37,8.45 15.72,14.34l-17.18 7.52c-0.03,0.62 -0.1,1.21 -0.14,1.91l0.66 8.59c-15.1,-2.98 -16.8,0.8 -30.86,3.6 5.51,11.02 17.11,21.61 29.93,26.81 12.92,5.3 9.21,3.84 15.8,13.68 4.05,6.13 7.62,10.32 11.22,17.31 -11.6,6.48 -13.33,8.7 -29.48,5.58 -14.51,-2.84 -1.11,-2.56 -11.95,1.94 -5.54,2.32 -7.96,1.59 -13.47,3.92 1,21.3 24.28,28.19 30.24,38.24 -7.76,2.39 -12.26,1.73 -21.65,1.97 -15.45,0.38 -18.39,9.32 -33.08,9.8 -4.95,0.14 -10.18,-2.49 -11.19,-6.65 -0.14,-0.66 -0.66,-0.8 -1.11,-1.11 -21.54,6.76 -40.59,-1.9 -50.64,-15.65 18.32,0.28 25.63,-1.28 41.98,4.4 6.93,-7.03 12.12,-13.65 19.74,-20.5l15.8 -13.75c3.05,-3.05 1.94,-1.67 3.53,-4.85 -8.35,-5.16 -14.82,-2.49 -24.73,-5.57 -15.03,-4.61 -6.76,-2.39 -18.91,3.43 -13.61,6.44 -31.38,-8.76 -35.88,-15.66 35.26,2.43 17.91,0.42 30.58,-3.46 6.44,-1.94 6.72,0.14 11.64,-3.39 5.79,-4.22 3.6,2.04 9.7,-1.25 4.85,-2.53 10.08,-10.74 14.72,-14.69l4.85 -4.22c-13.75,-12.26 -16.24,-6.37 -33.39,-6.44 -19.39,-24.91 -43.4,16.69 -42.29,-16.39l-13.2 -1.87 3.98 -5.3c4.85,1.01 7,3.19 9.94,5.79l7.03 -8.66c6.17,2.7 5.54,3.33 10.15,8.28 4.88,-1.83 8.69,-3.78 14.48,-5.06 8,-1.7 9.28,-1.94 14.76,-4.4 -0.52,-15.65 -21.2,-19.12 -32.49,-26.94 -1.73,-13.3 2.22,-5.02 3.39,-16.39 -6.2,-4.81 -5.37,-1.28 -8.21,-8.14 9.46,-5.61 11.4,-4.26 17.28,-14.24 -3.12,-7.17 -3.39,-2.7 -6.86,-10.22 2.46,-4.16 3.85,-5.96 5.75,-10.15 -3.57,-5.13 -9.07,-10.84 -3.91,-19.36 -11.15,2.46 -8.28,5.96 -23.31,3.98 -1.77,15.03 -9.63,29.09 -21.48,34.29 -3.78,-14.76 -5.02,-17.84 -3.67,-35.71l25.98 0.9 -7.13 -14.65c4.64,-4.99 2.74,-1.97 9.07,-6.06l-2.25 -18.18c-24.07,2.43 -14.03,3.43 -25.46,15.52 -4.16,-18.11 7.13,-20.47 11.12,-36.06 -7.28,-3.95 -9.63,3.78 -12.92,-4.74 -3.32,-8.8 3.33,-7.52 -6.48,-13.68l-4.02 24.35 -9.07 -2.87c-0.63,14.24 14.03,24.31 6.65,35.3l-5.72 -14.72 -19.26 0.72c2.91,8.7 4.71,19.71 8.17,28.92 2.98,8.11 3.84,3.81 0.9,14.13 -1.39,4.95 -3.19,8.83 -4.47,13.89 -13.27,-1.8 -10.5,-7.72 -25.15,-10.36 1.87,16.97 2.74,21.54 10.04,32.87 -3.05,8.94 -5.78,4.33 -6.17,13.61 9.91,5.27 15.72,0.56 24.28,7.62 14.31,11.81 3.54,3.67 20.89,8.94 -3.74,16.69 -24.66,5.19 -32.8,2.07 -16.66,-6.48 -3.15,3.12 -18.81,-0.03 -4.57,-1.01 -10.29,-6.06 -13.85,-7.93l-21.61 12.4c7.62,7.1 27.81,19.88 37.82,25.6 22.55,12.92 23.35,1.45 46.34,-0.76 -7.41,8.9 -17.49,23.52 -34.95,16.38 -11.78,-4.85 -9.42,-0.14 -23.03,2.11 -8.8,1.46 -13.33,0.76 -20.75,5.54 1.98,16.35 16.8,17.39 25.04,28.5 -7.24,4.36 -5.92,1.14 -14.1,3.22 -3.98,7.13 -1.66,5.3 -2.04,14.34 -16.35,-3.67 -15.41,0.52 -28.75,3.46 2.88,6.86 0.49,2.25 3.95,7l9.84 9.11c13.99,10.98 35.33,15.76 40.91,36.16 -17.49,12.19 -35.16,1.73 -53.13,10.15 -1.42,11.71 10.01,14.27 -0.52,18.11 -8.59,3.08 -13.82,-2.63 -26.08,2.15 -10.39,4.05 -28.75,1.49 -32.63,-12.96 26.43,2.63 49.63,-5.75 67.92,-23.62 -17.49,-6.02 -6.27,-6.2 -29.16,-5.4 -6.75,0.24 -16.17,-6.89 -21.27,-10.35 -7.65,5.26 -6.93,7.89 -21.37,7.89 -5.78,-5.5 -11.64,-9.45 -15.41,-14.51 13.2,-4.81 22.79,-4.02 32.7,3.78l4.4 -3.81c4.98,-2.88 14.03,-3.36 19.7,-5.44 -0.55,-10.08 1.94,-4.22 -5.37,-10.08 -8.14,-6.72 -18.91,-10.87 -27.33,-17.04 2.29,-7.45 2.36,-2.11 4.71,-10.67l-9.18 -5.57c4.4,-3.43 13.19,-7.48 17.35,-10.15 -1.35,-7.2 -3.36,-8.21 -3.81,-16.35 -0.48,-8.73 1.35,-11.12 -1.83,-18.91 -1.18,-0.31 -1.18,-0.45 -4.3,-0.14l-9.8 2.43c-8.56,2.74 -5.82,0.1 -10.43,8.63 -5.61,10.46 -6.65,15.65 -19.71,18.53 -2.53,-8.42 -3.22,-18.29 -2.01,-28.47 17.35,-0.04 24.73,2.7 18.15,-12.57 10.32,-8.42 7.55,-6.58 6.55,-20.43 -13.78,2.08 -17.11,3.22 -24.76,10.84 -0.31,-17.42 7.65,-15.03 9.07,-29.09 -10.22,-3.84 -4.71,5.58 -10.77,-4.43 -4.09,-6.82 2.32,-6.58 -7.76,-9.42l-1.59 20.19c-2.22,-0.1 -7.03,-0.8 -7.31,-0.8l-3.91 0.62c3.19,6.17 11.36,19.92 9.28,26.22 -9.07,-3.12 -2.98,-3.26 -8.66,-10.87l-19.02 -1.32c3.91,13.96 6.02,24.97 13.99,32.59l-7.93 4.22 1.32 11.46c-16.49,3.57 -12.09,-7.24 -26.05,-6.2 -1.66,10.29 -0.56,12.54 3.88,20.4 8.45,14.86 1,6.69 -0.1,18.22 24.21,1.94 24.38,16.07 41.35,15.9 -17.21,5.13 -27.4,2.98 -44.02,-0.97 -25.87,-5.96 -18.01,-4.02 -39.93,3.46l8.56 7.79c4.02,2.56 5.82,3.29 9.28,5.41 5.33,3.22 10.46,6.44 17.59,9.97 28.02,13.68 22.2,1.53 45.34,0 -16.28,27.12 -36.26,6.96 -65.19,16.14 -6.2,1.98 -12.85,6.44 -19.33,10.36l-21.61 -8.28c-1.52,-15.34 4.99,-15.69 5.58,-29.65 -12.57,-1.8 -29.69,3.54 -43.06,-2.39 -6.82,-2.98 -5.47,-1.07 -6.02,-8.48 3.77,-2.7 -0.59,-0.48 4.92,-2.01l10.91 -1.8c5.44,-1.56 6.65,-3.53 10.63,-6.51l-4.4 -14.13c8.9,-6.03 5.37,2.15 13.23,-5.65 1.59,-1.56 4.61,-7.28 6.72,-10.08 9.39,-12.33 19.88,-21.27 1.94,-33.7 -7.62,-5.26 -8.59,-2.18 -18.08,-1.49 0.69,-11.22 1.11,-9.56 -6.34,-15.97 -6.06,2.6 -1.94,0.93 -6.13,4.02 -14.2,10.53 -43.43,6.93 -40.87,-16.28 16.24,1.42 9.46,2.67 25.11,-2.43 10.36,-3.36 22.62,-0.04 26.43,-10.04 0.48,-1.25 0.66,-2.01 1,-3.22 4.57,-15.96 17.46,-36.19 17.77,-39.55 -26.77,-22.83 -17.77,-11.36 -36.26,-10.36 -4.85,-5.78 -2.25,-6.82 -4.09,-13.54zm1847.95 512.85l-20.12 0.07c4.99,-9.52 14.37,-10.25 25.22,-4.43 -1.73,1.77 -3.4,3.22 -5.09,4.37zm-1340.33 -150.32l-38.59 -9.18c2.29,-3.36 3.81,-6.89 8.35,-9.28 1.63,-0.87 3.11,-0.87 6.02,-2.43 5.78,-2.98 5.41,-3.22 7.76,-8.87 13.96,1.56 16.97,6.2 26.29,2.46 7.2,-2.87 16.76,-8.56 25.11,-3.88 -6.93,7.24 -18.46,11.88 -29.58,15.62 2.67,12.33 2.84,1.83 8,13.61l-13.37 1.94zm-208.78 -53.93l-3.95 -1.11c1.31,-0.62 2.74,-1.24 4.33,-1.76l-0.38 2.87zm-38.69 -11.26l-15.14 -4.5c1.77,-0.9 4.3,-1 9.07,0.83 2.08,0.76 4.09,2.08 6.06,3.67zm2096.54 -212.11c1.39,3.78 2.11,7.31 1.31,9.73l-3.33 -1.35c0.28,-2.22 0.8,-4.99 2.01,-8.38zm-18.84 21.06c1.66,3.39 3.7,6.44 6.48,9.07l-7.96 4.22 1.18 9.87c-1.11,0.8 -2.22,1.56 -3.36,2.19 -12.36,1.35 -9.66,-7.76 -22.55,-6.79l-0.45 3.39c-5.82,-3.5 -10.25,-8.38 -12.92,-14.65 20.4,-1.45 23.48,-4.19 39.59,-7.31zm14.55 98.81l1.21 -0.07c-3.78,6.27 -7.72,9.94 -11.95,12.13l-3.12 -1.15c0.35,-0.48 0.87,-1.04 1.21,-1.28l8 -5.82c2.22,-1.49 3.67,-2.7 4.64,-3.81zm338.91 223.54c11.39,-2.6 12.02,2.94 21.54,0.1 6.79,-1.97 4.19,-5.44 16.94,-9.87l8.21 6.13c-4.92,6.44 -13.2,9.32 -23.97,12.54 -11.6,3.39 -20.12,2.11 -22.72,-8.9zm-242.38 -72.46c2.67,4.12 5.41,7.62 6.2,13.68 -17.21,1.66 -28.09,-2.15 -34.43,-11.36l28.23 -2.32zm628.57 -2.46c7.44,-3.15 14.37,-2.39 22.06,0 3.6,1.11 5.65,1.94 8.97,3.7l6.76 4.43c-7.03,3.71 -14.3,3.88 -23.62,1.18 -1.59,-0.45 -7.52,-2.77 -8.97,-3.67l-5.2 -5.65zm-379.85 -20.95c13.96,1.56 16.97,6.2 26.29,2.46 7.2,-2.87 16.73,-8.56 25.08,-3.88 -6.89,7.24 -18.46,11.88 -29.55,15.62 2.67,12.33 2.81,1.83 7.97,13.61 -20.96,2.98 -46.17,7.62 -68.89,2.08 19.85,-3.12 15.55,-13.47 25.28,-18.6 1.66,-0.87 3.12,-0.87 6.06,-2.43 5.79,-2.98 5.41,-3.22 7.76,-8.87zm690.53 -9.25c2.43,-7.86 5.16,-9.42 13.44,-12.75l-0.63 10.67 -12.81 2.08zm387.82 -7.07c2.56,-1.28 41.39,-12.99 46.27,-13.82 -2.6,6.96 -1.94,5.82 -7.9,9.77 -14.55,9.63 -19.91,8.59 -38.37,4.05zm-638.13 -19.92c8.8,-0.1 11.81,1.8 17.39,6.31 -5.99,6.72 -13.54,7.41 -24.8,3.6l7.41 -9.91zm207.36 -0.93c11.26,-0.28 13.89,1.31 16.14,10.63 -11.02,1.28 -15.03,-1.84 -16.14,-10.63zm-944.1 3.15c17.25,-1.73 21.09,1.04 35.64,1.49 15.93,0.52 8.73,-12.3 23.8,-6.58 7.45,2.77 14.1,12.57 19.92,16.35 10.63,6.89 14.09,-0.59 25.18,-4.3 -2.53,16.76 4.43,25.28 -47.24,8.59 -21.02,-6.79 -39.38,6.75 -57.29,-15.56zm954.52 -12.19c0.83,-9.49 6.93,-11.95 7.35,-13.68 0.14,-0.73 0.69,-0.83 1,-1.25l25.87 18.29c-10.32,0.9 -25.98,0.42 -34.22,-3.36zm-863.22 -6.13c-7.1,4.85 -13.99,4.57 -20.02,-2.04 2.98,-8.66 15.55,-5.61 20.02,2.04zm652.64 -1.35c4.99,-2.22 0.93,-0.35 4.5,-2.42 3.43,-1.98 0.56,-0.42 4.06,-2.5 2.39,-1.39 3.88,-2.32 6.96,-3.64 5.92,-2.46 10.94,-3.5 17.56,-4.57 -8.35,30.41 -53.82,19.46 -75.02,14.89 -16.8,-3.67 -12.89,3.46 -27.5,3.6 -5.51,-4.64 -2.77,-4.92 -6.51,-8.21 -2.87,-2.49 -0.31,-1.07 -5.65,-3.05 -3.7,-1.39 -0.62,0.52 -4.3,-0.87 4.71,-9.63 4.85,-1.46 9.98,-1.35 0.35,0 0.97,0 1.35,-0.07 2.87,-0.24 4.02,-1.21 4.33,-1.28 8.31,-1.98 13.68,0.76 24.59,0.59 27.33,-0.48 26.43,-3.63 45.65,8.87zm-468.07 5.89c4.74,-10.7 10.7,-25.42 24.11,-29.85l14.34 12.78c13.85,-2.5 7.93,-8.48 17.87,-9.46l-2.46 19.78c-16.52,7.65 -32.91,14.51 -52.68,19.81 -22.72,6.2 -38.41,12.68 -49.67,-7.76 17.98,1.21 28.75,-5.44 48.49,-5.3zm317.75 -45.93c11.15,-7.48 22.55,2.74 32.52,7 -9.87,7.65 -27.16,2.94 -32.52,-7zm799.77 5.82c-1.04,-0.59 -2.7,-2.08 -3.6,-2.81 -0.24,-0.21 -0.87,-0.52 -1.04,-1.14 -0.17,-0.69 -0.69,-0.8 -1,-1.18 4.47,-4.81 4.75,-6.37 13.09,-8.42 2.8,7.69 3.88,6.96 1.21,15.76 -4.54,-0.17 -5.82,-0.52 -8.66,-2.22zm-460.07 -11.22c6.55,-3.81 7.59,0.11 14,-6.48 2.15,-2.11 5.47,-8.52 7.48,-11.05 14.2,13.99 53.76,23.93 57.77,39.62 -14.03,7.27 -10.25,4.4 -26.36,2.77 -20.19,-2.01 -56.42,19.08 -75.89,-0.45 14.24,-10.84 28.37,5.16 23,-24.42zm379.13 -9.73c31.2,-7.27 60.78,-14.76 70.34,15.14 -19.95,-1.15 -12.22,-3.57 -23.13,-9.46 -19.99,7.96 -34.57,8.38 -47.21,-5.68zm-774.01 -18.32c13.13,3.33 5.82,5.93 22.79,3.15 14.62,-2.39 11.36,-3.5 22.17,-8.07 1.45,8.28 5.23,14.69 6.58,20.4 -17.8,9.18 -13.06,0.66 -28.54,-2.19 -15.66,-2.87 -11.64,8.76 -29.3,1.7 -0.45,-7.55 2.84,-10.39 6.3,-15zm854.74 -10.63c-5.85,7.07 -5.02,5.02 -15.06,4.54 2.04,-8.31 8.04,-12.23 15.06,-4.54zm-220.73 -17.59c-2.63,-9.52 -7.1,-33.91 10.11,-27.81 4.02,1.39 17.46,17.98 18.94,23 -8.94,6.24 -16.11,6.86 -29.06,4.81zm-37.96 -43.33c5.26,-1.04 5.51,-0.24 10.25,0.45 -0.97,17.01 -13.54,11.54 -17.49,3.43 1.39,-1.18 0,-2.49 7.24,-3.88zm159.01 -21.37c13.02,-2.08 32.7,-3.5 43.85,-7.83 14.48,-5.65 13.2,-16.17 31.8,-18.35 7.76,16.63 14.17,14.51 28.47,23.97l20.74 29.51c-9.39,7.93 -23.8,13.72 -37.09,4.33 -8.35,7.65 -5.71,6.37 -18.7,8.52 2.5,13.23 6.86,17.39 12.06,27.33 -10.5,-0.76 -15.48,-3.19 -26.63,0.52l-5.65 -8.17c-12.57,0.97 -18.22,4.3 -31.59,-0.73 -7.69,-2.87 -16.87,-7.9 -20.99,-13.72 20.96,-0.35 23.59,-0.2 41.84,4.3 13.37,-18.04 28.26,-23.97 38.17,-34.57 -9.56,-7.1 -29.85,-7.62 -42.5,-4.02 -21.51,6.09 -24.07,-6.48 -33.77,-11.08zm-829.04 -12.16c4.64,12.43 12.57,12.05 2.87,24.07 -15.79,1.04 -29.33,-11.39 -34.77,-21.3l22.96 4.99 8.94 -7.76zm611.67 -18.26l17.11 0.94c0.31,6.58 0.63,14.69 -10.74,18.6 -11.08,3.85 -1.39,1.15 -6.37,0.04l0 -19.57zm-1679.66 358.52c10.29,-3.5 24.04,-2.84 36.5,-3.46 14.17,-0.69 20.44,-3.08 32.31,-6.13 -6.96,14.24 -18.46,6.79 -32.42,20.37 -15.13,0.66 -26.5,-5.47 -36.4,-10.77zm-17.11 -60.02c7.86,-4.81 8.69,-4.3 19.57,-3.36 14,1.14 8.59,-0.14 18.39,-4.92 16.21,16.42 14.76,8.8 31.48,3.36 -0.83,12.43 2.67,14.51 -9.28,16.73 -20.95,3.88 -45.44,1 -60.16,-11.81zm-909.43 -27.02c7.44,-3.15 14.37,-2.39 22.06,0 3.57,1.11 5.65,1.94 8.97,3.7l6.72 4.43c-7,3.71 -14.27,3.88 -23.59,1.18 -1.63,-0.45 -7.52,-2.77 -8.97,-3.67l-5.19 -5.65zm966.06 0c-8.87,4.54 -10.6,1.49 -12.99,1l0.45 -7.86c8.66,-1.07 9.21,0.21 12.54,6.86zm-655.41 -30.2c2.46,-7.86 5.16,-9.42 13.47,-12.75l-0.62 10.67 -12.85 2.08zm387.85 -7.07c2.53,-1.28 41.39,-12.99 46.28,-13.82 -2.63,6.96 -1.98,5.82 -7.9,9.77 -14.58,9.63 -19.95,8.59 -38.38,4.05zm-638.13 -19.92c8.8,-0.1 11.81,1.8 17.35,6.31 -5.99,6.72 -13.54,7.41 -24.76,3.6l7.41 -9.91zm207.36 -0.93c11.22,-0.28 13.89,1.31 16.11,10.63 -11.02,1.28 -15,-1.84 -16.11,-10.63zm10.43 -9.04c0.8,-9.49 6.93,-11.95 7.31,-13.68 0.14,-0.73 0.73,-0.83 1.04,-1.25l25.84 18.29c-10.32,0.9 -25.98,0.42 -34.19,-3.36zm-863.22 -6.13c-7.14,4.85 -14.03,4.57 -20.06,-2.04 2.98,-8.66 15.55,-5.61 20.06,2.04zm652.61 -1.35c4.99,-2.22 0.93,-0.35 4.5,-2.42 3.43,-1.98 0.59,-0.42 4.09,-2.5 2.36,-1.39 3.85,-2.32 6.93,-3.64 5.96,-2.46 10.94,-3.5 17.59,-4.57 -8.35,30.41 -53.82,19.46 -75.06,14.89 -16.8,-3.67 -12.89,3.46 -27.46,3.6 -5.51,-4.64 -2.81,-4.92 -6.55,-8.21 -2.87,-2.49 -0.31,-1.07 -5.61,-3.05 -3.71,-1.39 -0.66,0.52 -4.33,-0.87 4.71,-9.63 4.85,-1.46 9.98,-1.35 0.38,0 1,0 1.35,-0.07 2.87,-0.24 4.05,-1.21 4.33,-1.28 8.31,-1.98 13.72,0.76 24.63,0.59 27.3,-0.48 26.43,-3.63 45.62,8.87zm-468.07 5.89c4.78,-10.7 10.74,-25.42 24.11,-29.85l14.34 12.78c13.89,-2.5 7.93,-8.48 17.87,-9.46l-2.46 19.78c-16.49,7.65 -32.91,14.51 -52.68,19.81 -22.69,6.2 -38.41,12.68 -49.67,-7.76 18.01,1.21 28.75,-5.44 48.49,-5.3zm1482.44 -31.14c48.18,1.49 46.83,-7.93 76.06,-12.09 -4.81,5.96 -11.88,10.08 -21.89,13.89 -14.72,5.68 -11.92,4.43 -21.34,12.88 -16,-0.28 -26.5,-6.58 -32.83,-14.69zm-1164.69 -14.79c11.19,-7.48 22.55,2.74 32.52,7 -9.83,7.65 -27.15,2.94 -32.52,-7zm799.77 5.82c-1,-0.59 -2.7,-2.08 -3.57,-2.81 -0.28,-0.21 -0.9,-0.52 -1.07,-1.14 -0.14,-0.69 -0.66,-0.8 -0.97,-1.18 4.43,-4.81 4.74,-6.37 13.09,-8.42 2.81,7.69 3.85,6.96 1.21,15.76 -4.54,-0.17 -5.85,-0.52 -8.69,-2.22zm-460.07 -11.22c6.58,-3.81 7.59,0.11 13.99,-6.48 2.19,-2.11 5.51,-8.52 7.52,-11.05 14.2,13.99 53.75,23.93 57.74,39.62 -14.03,7.27 -10.25,4.4 -26.36,2.77 -20.16,-2.01 -56.39,19.08 -75.89,-0.45 14.24,-10.84 28.37,5.16 23,-24.42zm379.16 -9.73c31.21,-7.27 60.75,-14.76 70.31,15.14 -19.91,-1.15 -12.19,-3.57 -23.14,-9.46 -19.98,7.96 -34.53,8.38 -47.17,-5.68zm-774 -18.32c13.09,3.33 5.82,5.93 22.76,3.15 14.62,-2.39 11.39,-3.5 22.17,-8.07 1.49,8.28 5.27,14.69 6.58,20.4 -17.8,9.18 -13.06,0.66 -28.5,-2.19 -15.69,-2.87 -11.64,8.76 -29.3,1.7 -0.45,-7.55 2.84,-10.39 6.3,-15zm1229.88 8.9l-14.44 4.74 -1.83 -10.15 -10.43 -1.98c0.1,-4.02 1.04,-5.68 4.57,-4.64 0.87,0.28 2.46,1.73 3.67,2.43 3.74,2.43 0.28,0.63 5.23,3.02 3.6,-8.52 -0.94,-3.19 6.24,-6.86 4.92,4.5 5.92,4.02 7,13.44zm-375.18 -19.54c-5.85,7.07 -5.02,5.02 -15.07,4.54 2.08,-8.31 8.07,-12.23 15.07,-4.54zm403.96 -6.13c7.66,-4.74 10.36,-8.17 18.88,-10.15 -3.29,11.88 -0.62,16.24 -9.67,21.16 -7.44,-3.22 -6.85,-3.74 -9.21,-11.02zm-624.69 -11.46c-2.6,-9.52 -7.07,-33.91 10.15,-27.81 3.98,1.39 17.46,17.98 18.91,23 -8.94,6.24 -16.07,6.86 -29.06,4.81zm765.45 -10.91c10.56,-8.17 24.52,-0.28 36.3,-7.24 -0.9,7.24 -24.94,24.49 -36.3,7.24zm-172.21 -12.26c7.62,-7.59 5.06,-0.97 14.62,-12.64 11.29,1.49 19.19,6.51 21.54,14.2 -13.41,0.93 -27.26,2.53 -36.16,-1.56zm-631.17 -20.16c5.26,-1.04 5.51,-0.24 10.22,0.45 -0.93,17.01 -13.54,11.54 -17.46,3.43 1.35,-1.18 0,-2.49 7.24,-3.88zm158.98 -21.37c13.06,-2.08 32.73,-3.5 43.85,-7.83 14.48,-5.65 13.2,-16.17 31.8,-18.35 7.79,16.63 14.2,14.51 28.47,23.97l20.75 29.51c-9.39,7.93 -23.76,13.72 -37.06,4.33 -8.38,7.65 -5.75,6.37 -18.7,8.52 2.46,13.23 6.82,17.39 12.02,27.33 -10.5,-0.76 -15.48,-3.19 -26.63,0.52l-5.65 -8.17c-12.57,0.97 -18.19,4.3 -31.56,-0.73 -7.69,-2.87 -16.9,-7.9 -20.99,-13.72 20.95,-0.35 23.55,-0.2 41.8,4.3 13.37,-18.04 28.26,-23.97 38.17,-34.57 -9.52,-7.1 -29.82,-7.62 -42.46,-4.02 -21.54,6.09 -24.07,-6.48 -33.81,-11.08zm-829.04 -12.16c4.68,12.43 12.61,12.05 2.87,24.07 -15.8,1.04 -29.33,-11.39 -34.78,-21.3l22.96 4.99 8.94 -7.76zm1508.56 -1.28c-3.02,2.08 0.66,0.87 -4.43,2.01 -10.36,2.36 -45.17,5.68 -54.62,-8.62l48.67 2.77c9.94,0.69 7.37,-1.15 10.39,3.84zm-896.86 -16.97l17.07 0.94c0.35,6.58 0.63,14.69 -10.74,18.6 -11.08,3.85 -1.35,1.15 -6.34,0.04l0 -19.57zm867.9 -48.28c9.35,2.35 14.58,5.3 9.73,15.24 -3.43,1.49 -18.98,3.95 -23.38,3.01 -7.03,-1.42 -12.54,-8.42 -14.89,-14.79l23.8 5.96 4.74 -9.42zm37.89 -15.55c7.13,4.3 10.67,11.64 14.61,17.73 -9.28,10.56 -30.34,18.74 -36.26,0l21.65 -17.73zm-52.02 -31.9c10.77,-1.04 10.11,-6.41 21.78,0.52 6.48,3.88 11.98,8.04 14.72,14.48 -11.98,11.15 -13.3,1.28 -23.07,-2.74 -17.25,-7.24 -8.69,7.89 -30.34,3.84 -3.15,-5.61 -0.49,-6.27 -5.61,-10.6 -2.11,-1.7 -5.78,-2.32 -9.45,-4.74 9.39,-9.77 3.88,-3.5 11.22,-2.98 13.89,1 -0.8,-0.9 12.37,-4.67l8.38 6.89zm63.8 -43.61c9.31,1.49 20.99,0.24 26.74,5.68 -8.07,6.3 -27.64,12.12 -26.74,-5.68z"/>
 </g>
</svg>
